<svg width="36" height="36" viewBox="0 0 36 36" fill="none" xmlns="http://www.w3.org/2000/svg">
<path d="M17.9993 1.5C8.88781 1.5 1.5 8.88781 1.5 17.9993C1.5 27.1108 8.88781 34.5 17.9993 34.5C27.1108 34.5 34.5 27.1108 34.5 17.9993C34.5 8.88781 27.1108 1.5 17.9993 1.5Z" fill="#F58D2A"/>
<path d="M23.4426 19.8737C23.1872 19.2706 22.6933 18.7723 21.9607 18.3792C23.0902 18.1337 23.755 17.3871 23.9555 16.1392C24.0315 15.6875 24.0104 15.2732 23.8919 14.8954C23.7733 14.5176 23.5666 14.1845 23.2709 13.8958C22.9755 13.6069 22.6373 13.3571 22.2571 13.1461C21.8769 12.9351 21.4289 12.7366 20.9133 12.5507L21.5791 10.025L20.0357 9.61813L19.3884 12.0738C19.1212 12.0033 18.7118 11.9025 18.1605 11.7715L18.813 9.29585L17.2694 8.88897L16.6036 11.4148C16.3813 11.3633 16.0564 11.2813 15.6287 11.1686L13.5066 10.5984L13.0733 12.2422L14.1858 12.5355C14.6936 12.6693 14.9311 12.9749 14.8982 13.4521L14.1399 16.3288C14.2068 16.3464 14.2593 16.3639 14.2977 16.3812L14.1373 16.3389L13.0753 20.368C12.9321 20.6946 12.6934 20.814 12.3592 20.7259L11.2468 20.4327L10.4526 22.1851L12.4572 22.7135C12.5842 22.7469 12.7674 22.797 13.0072 22.8635C13.2468 22.9302 13.4267 22.9795 13.547 23.0112L12.8734 25.567L14.4172 25.9739L15.083 23.4482C15.3617 23.529 15.7685 23.6396 16.303 23.7806L15.6399 26.2962L17.1833 26.703L17.857 24.1472C18.4121 24.265 18.9113 24.3433 19.3549 24.3813C19.7986 24.4194 20.235 24.4113 20.6639 24.3563C21.0927 24.3015 21.4683 24.1914 21.7905 24.0262C22.1127 23.8612 22.4065 23.6205 22.6723 23.3046C22.9375 22.9885 23.1563 22.5996 23.328 22.1373C23.66 21.2318 23.6981 20.4771 23.4426 19.8737ZM17.715 13.5833C17.7618 13.5956 17.8942 13.6287 18.1122 13.6826C18.3304 13.7364 18.5116 13.7807 18.6562 13.8152C18.8007 13.8497 18.9923 13.9092 19.231 13.9935C19.4696 14.0779 19.668 14.1588 19.8262 14.2362C19.9844 14.3135 20.1538 14.4172 20.3338 14.5468C20.5142 14.6765 20.6498 14.8123 20.7409 14.9542C20.8322 15.0962 20.8971 15.2634 20.9355 15.4558C20.9742 15.6482 20.9645 15.8546 20.9064 16.0751C20.8571 16.2622 20.7821 16.4247 20.6815 16.5627C20.5811 16.7005 20.4567 16.8054 20.3093 16.8773C20.1618 16.9492 20.0142 17.0068 19.8669 17.0501C19.7199 17.0935 19.5414 17.1126 19.332 17.1074C19.1227 17.1022 18.9409 17.0936 18.787 17.0816C18.6329 17.0696 18.4443 17.0396 18.2212 16.9914C17.998 16.9433 17.8291 16.906 17.7147 16.8794C17.6002 16.8527 17.4449 16.8118 17.2485 16.7565C17.0522 16.7012 16.9375 16.6691 16.904 16.6603L17.7151 13.5833L17.715 13.5833L17.715 13.5833ZM20.1307 21.5198C20.0265 21.6568 19.9095 21.769 19.7794 21.8562C19.6492 21.9432 19.4907 22.0087 19.3042 22.0523C19.1177 22.0962 18.9404 22.1244 18.7727 22.1374C18.6048 22.1505 18.4071 22.1481 18.1795 22.1312C17.9515 22.114 17.7537 22.092 17.5854 22.0657C17.4174 22.0393 17.2185 22.0011 16.9886 21.9513C16.7589 21.9013 16.5804 21.8596 16.4534 21.8262C16.3265 21.7927 16.1666 21.7486 15.9736 21.6943C15.7806 21.64 15.6575 21.6058 15.604 21.5917L16.497 18.2038C16.5504 18.2179 16.71 18.2565 16.9758 18.3192C17.2416 18.3821 17.4578 18.4357 17.6248 18.4798C17.7919 18.5238 18.0199 18.5944 18.3087 18.6922C18.5973 18.7895 18.8366 18.8846 19.0267 18.9776C19.2165 19.0706 19.4189 19.1899 19.6342 19.3361C19.8494 19.4821 20.0147 19.6347 20.1301 19.7937C20.2453 19.9529 20.3284 20.1389 20.3793 20.3525C20.4304 20.566 20.4242 20.7931 20.3607 21.0337C20.3113 21.221 20.2348 21.3828 20.1307 21.5198Z" fill="white"/>
</svg>
