<svg width="36" height="36" viewBox="0 0 36 36" fill="none" xmlns="http://www.w3.org/2000/svg">
<circle cx="18" cy="18" r="18" fill="black"/>
<g clip-path="url(#clip0_7659_200385)">
<path d="M26.9073 22.7879L23.9359 25.9268C23.8713 25.995 23.7931 26.0494 23.7063 26.0865C23.6194 26.1237 23.5257 26.1428 23.4311 26.1428H9.34496C9.27775 26.1428 9.212 26.1234 9.1558 26.0871C9.09959 26.0508 9.05538 25.9992 9.02859 25.9384C9.0018 25.8777 8.9936 25.8106 9.005 25.7454C9.0164 25.6801 9.04689 25.6196 9.09275 25.5712L12.0664 22.4322C12.1309 22.3642 12.2088 22.31 12.2953 22.2728C12.3819 22.2357 12.4753 22.2164 12.5697 22.2163H26.655C26.7222 22.2163 26.788 22.2356 26.8442 22.2719C26.9004 22.3082 26.9446 22.3599 26.9715 22.4206C26.9982 22.4813 27.0064 22.5484 26.995 22.6137C26.9836 22.6789 26.9531 22.7395 26.9073 22.7879ZM23.9359 16.4669C23.8713 16.3987 23.7931 16.3444 23.7063 16.3072C23.6194 16.2701 23.5257 16.2509 23.4311 16.251H9.34496C9.27775 16.251 9.212 16.2703 9.1558 16.3066C9.09959 16.3429 9.05538 16.3946 9.02859 16.4553C9.0018 16.516 8.9936 16.5831 9.005 16.6484C9.0164 16.7136 9.04689 16.7742 9.09275 16.8226L12.0664 19.9615C12.1309 20.0295 12.2088 20.0838 12.2953 20.1209C12.3819 20.1581 12.4753 20.1773 12.5697 20.1775H26.655C26.7222 20.1775 26.788 20.1581 26.8442 20.1218C26.9004 20.0855 26.9446 20.0338 26.9715 19.9731C26.9982 19.9124 27.0064 19.8453 26.995 19.7801C26.9836 19.7148 26.9531 19.6543 26.9073 19.6059L23.9359 16.4669ZM9.34496 14.2122H23.4311C23.5257 14.2122 23.6194 14.1931 23.7063 14.1559C23.7931 14.1188 23.8713 14.0644 23.9359 13.9962L26.9073 10.8573C26.9531 10.8089 26.9836 10.7483 26.995 10.6831C27.0064 10.6178 26.9982 10.5507 26.9715 10.49C26.9446 10.4293 26.9004 10.3776 26.8442 10.3413C26.788 10.305 26.7222 10.2856 26.655 10.2856H12.5697C12.4753 10.2858 12.3819 10.3051 12.2953 10.3422C12.2088 10.3793 12.1309 10.4336 12.0664 10.5016L9.09352 13.6406C9.04771 13.6889 9.01722 13.7494 9.0058 13.8146C8.99437 13.8797 9.00251 13.9468 9.0292 14.0075C9.0559 14.0682 9.09999 14.1198 9.15608 14.1562C9.21217 14.1926 9.27782 14.212 9.34496 14.2122Z" fill="url(#paint0_linear_7659_200385)"/>
</g>
<defs>
<linearGradient id="paint0_linear_7659_200385" x1="10.5194" y1="26.5207" x2="25.0416" y2="9.90066" gradientUnits="userSpaceOnUse">
<stop offset="0.08" stop-color="#9945FF"/>
<stop offset="0.3" stop-color="#8752F3"/>
<stop offset="0.5" stop-color="#5497D5"/>
<stop offset="0.6" stop-color="#43B4CA"/>
<stop offset="0.72" stop-color="#28E0B9"/>
<stop offset="0.97" stop-color="#19FB9B"/>
</linearGradient>
<clipPath id="clip0_7659_200385">
<rect width="18" height="15.8571" fill="white" transform="translate(9 10.2856)"/>
</clipPath>
</defs>
</svg>
