<svg width="194" height="49" viewBox="0 0 194 49" fill="none" xmlns="http://www.w3.org/2000/svg">
<path opacity="0.2" d="M192.2 1.9505L193 2.18812V49H1V33.0792L1.8 33.5545L2.59999 34.0297L3.39999 32.1287L4.2 33.7921L5 32.3663L5.8 38.0693L6.59999 36.1683L7.39999 36.4059L8.2 31.8911L9 32.8416L9.8 30.9406L10.6 31.6535H11.4L12.2 29.0396L13 31.6535L13.8 30.4653L14.6 27.6139L15.4 31.1782H16.2L17 34.505L17.8 15.495L18.6 13.5941L19.4 13.3564L20.2 16.6832L21 15.9703L21.8 18.8218L22.6 13.3564L23.4 14.0693L24.2 16.4455L25 16.6832L25.8 16.4455L26.6 15.0198L27.4 16.2079L28.2 14.7822L29 14.5446L29.8 16.4455L30.6 16.2079L31.4 14.7822L32.2 14.5446L33 13.8317L33.8 14.5446L34.6 14.7822L35.4 13.8317L36.2 14.3069H37L37.8 15.7327L38.6 15.495L39.4 15.7327L40.2 16.2079L41 16.4455L41.8 20.0099L42.6 20.2475L43.4 20.0099L44.2 20.2475L45 16.4455L45.8 16.6832L46.6 16.4455L47.4 14.3069L48.2 14.0693L49 14.5446L49.8 17.396L50.6 18.1089L51.4 15.2574L52.2 15.495L53 14.0693L53.8 16.4455L54.6 16.2079L55.4 14.0693L56.2 15.7327L57 16.2079L57.8 15.7327L58.6 14.3069L59.4 14.0693L60.2 15.0198L61 14.7822L61.8 9.79208L62.6 8.36634L63.4 6.22772L64.2 11.4554L65 11.6931L65.8 11.4554L66.6 14.5446L67.4 14.3069L68.2 14.5446L69 18.1089L69.8 17.1584L70.6 25.9505L71.4 23.5743L72.2 23.3366L73 25.7129L73.8 24.0495L74.6 23.5743L75.4 23.3366L76.2 23.5743L77 15.7327L77.8 15.9703L78.6 15.7327L79.4 18.3465L80.2 18.1089L81 18.3465L81.8 18.1089L82.6 15.495L83.4 15.9703L84.2 15.495L85 15.2574H85.8L86.6 14.7822L87.4 18.3465L88.2 18.1089L89 18.3465L89.8 18.1089L90.6 18.3465L91.4 18.1089L92.2 18.3465L93 18.1089L93.8 14.7822L94.6 14.5446L95.4 14.7822L96.2 14.5446H97L97.8 14.3069L98.6 14.5446L99.4 19.297L100.2 19.7723L101 17.396L101.8 17.6337L102.6 19.297L103.4 16.6832L104.2 16.4455L105 14.5446L105.8 14.3069L106.6 14.5446H107.4L108.2 16.4455L109 16.2079L109.8 15.2574L110.6 15.0198L111.4 15.9703L112.2 5.0396L113 7.41584L113.8 11.4554L114.6 15.9703L115.4 15.7327L116.2 15.9703L117 15.7327L117.8 13.1188L118.6 9.07921L119.4 9.55446L120.2 9.31683L121 13.3564L121.8 17.6337L122.6 14.0693L123.4 16.6832L124.2 18.3465L125 18.1089L125.8 18.3465L126.6 18.1089L127.4 18.3465L128.2 15.495L129 15.7327L129.8 15.495L130.6 20.2475L131.4 15.7327L132.2 16.9208L133 16.6832L133.8 15.9703H134.6L135.4 16.2079L136.2 18.1089L137 18.3465L137.8 18.1089L138.6 17.1584L139.4 16.9208L140.2 17.1584L141 14.5446L141.8 13.5941L142.6 16.9208L143.4 17.1584L144.2 16.9208L145 15.495L145.8 15.2574L146.6 14.0693L147.4 9.79208L148.2 10.0297L149 8.36634L149.8 9.31683H150.6L151.4 8.84158L152.2 11.2178L153 10.505L153.8 11.6931L154.6 14.5446L155.4 16.2079L156.2 16.4455L157 16.6832L157.8 19.5347L158.6 19.297L159.4 15.9703L160.2 12.4059L161 16.2079L161.8 14.7822L162.6 15.0198L163.4 12.8812L164.2 13.1188L165 12.8812L165.8 12.1683L166.6 6.70297L167.4 3.37624L168.2 3.13861L169 1.23762L169.8 1L170.6 3.37624L171.4 1L172.2 5.0396L173 2.18812L173.8 3.37624L174.6 3.13861L175.4 5.9901L176.2 11.2178L177 12.6436L177.8 9.79208L178.6 11.2178L179.4 16.9208L180.2 14.0693L181 10.9802L181.8 11.2178L182.6 10.7426L183.4 8.12871L184.2 8.84158L185 8.60396L185.8 8.36634L186.6 8.60396L187.4 8.36634L188.2 7.65347L189 1L189.8 1.23762L190.6 3.37624L191.4 3.61386L192.2 1.9505Z" fill="url(#paint0_linear_8386_221089)"/>
<path d="M193 2.18812L192.2 1.9505L191.4 3.61386L190.6 3.37624L189.8 1.23762L189 1L188.2 7.65347L187.4 8.36634L186.6 8.60396L185.8 8.36634L185 8.60396L184.2 8.84158L183.4 8.12871L182.6 10.7426L181.8 11.2178L181 10.9802L180.2 14.0693L179.4 16.9208L178.6 11.2178L177.8 9.79208L177 12.6436L176.2 11.2178L175.4 5.9901L174.6 3.13861L173.8 3.37624L173 2.18812L172.2 5.0396L171.4 1L170.6 3.37624L169.8 1L169 1.23762L168.2 3.13861L167.4 3.37624L166.6 6.70297L165.8 12.1683L165 12.8812L164.2 13.1188L163.4 12.8812L162.6 15.0198L161.8 14.7822L161 16.2079L160.2 12.4059L159.4 15.9703L158.6 19.297L157.8 19.5347L157 16.6832L156.2 16.4455L155.4 16.2079L154.6 14.5446L153.8 11.6931L153 10.505L152.2 11.2178L151.4 8.84158L150.6 9.31683H149.8L149 8.36634L148.2 10.0297L147.4 9.79208L146.6 14.0693L145.8 15.2574L145 15.4951L144.2 16.9208L143.4 17.1584L142.6 16.9208L141.8 13.5941L141 14.5446L140.2 17.1584L139.4 16.9208L138.6 17.1584L137.8 18.1089L137 18.3465L136.2 18.1089L135.4 16.2079L134.6 15.9703H133.8L133 16.6832L132.2 16.9208L131.4 15.7327L130.6 20.2475L129.8 15.4951L129 15.7327L128.2 15.4951L127.4 18.3465L126.6 18.1089L125.8 18.3465L125 18.1089L124.2 18.3465L123.4 16.6832L122.6 14.0693L121.8 17.6337L121 13.3564L120.2 9.31683L119.4 9.55446L118.6 9.07921L117.8 13.1188L117 15.7327L116.2 15.9703L115.4 15.7327L114.6 15.9703L113.8 11.4554L113 7.41584L112.2 5.0396L111.4 15.9703L110.6 15.0198L109.8 15.2574L109 16.2079L108.2 16.4455L107.4 14.5446H106.6L105.8 14.3069L105 14.5446L104.2 16.4455L103.4 16.6832L102.6 19.297L101.8 17.6337L101 17.396L100.2 19.7723L99.4 19.297L98.6 14.5446L97.8 14.3069L97 14.5446H96.2L95.4 14.7822L94.6 14.5446L93.8 14.7822L93 18.1089L92.2 18.3465L91.4 18.1089L90.6 18.3465L89.8 18.1089L89 18.3465L88.2 18.1089L87.4 18.3465L86.6 14.7822L85.8 15.2574H85L84.2 15.4951L83.4 15.9703L82.6 15.4951L81.8 18.1089L81 18.3465L80.2 18.1089L79.4 18.3465L78.6 15.7327L77.8 15.9703L77 15.7327L76.2 23.5743L75.4 23.3366L74.6 23.5743L73.8 24.0495L73 25.7129L72.2 23.3366L71.4 23.5743L70.6 25.9505L69.8 17.1584L69 18.1089L68.2 14.5446L67.4 14.3069L66.6 14.5446L65.8 11.4554L65 11.6931L64.2 11.4554L63.4 6.22772L62.6 8.36634L61.8 9.79208L61 14.7822L60.2 15.0198L59.4 14.0693L58.6 14.3069L57.8 15.7327L57 16.2079L56.2 15.7327L55.4 14.0693L54.6 16.2079L53.8 16.4455L53 14.0693L52.2 15.4951L51.4 15.2574L50.6 18.1089L49.8 17.396L49 14.5446L48.2 14.0693L47.4 14.3069L46.6 16.4455L45.8 16.6832L45 16.4455L44.2 20.2475L43.4 20.0099L42.6 20.2475L41.8 20.0099L41 16.4455L40.2 16.2079L39.4 15.7327L38.6 15.4951L37.8 15.7327L37 14.3069H36.2L35.4 13.8317L34.6 14.7822L33.8 14.5446L33 13.8317L32.2 14.5446L31.4 14.7822L30.6 16.2079L29.8 16.4455L29 14.5446L28.2 14.7822L27.4 16.2079L26.6 15.0198L25.8 16.4455L25 16.6832L24.2 16.4455L23.4 14.0693L22.6 13.3564L21.8 18.8218L21 15.9703L20.2 16.6832L19.4 13.3564L18.6 13.5941L17.8 15.4951L17 34.505L16.2 31.1782H15.4L14.6 27.6139L13.8 30.4653L13 31.6535L12.2 29.0396L11.4 31.6535H10.6L9.8 30.9406L9 32.8416L8.2 31.8911L7.4 36.4059L6.6 36.1683L5.8 38.0693L5 32.3663L4.2 33.7921L3.4 32.1287L2.6 34.0297L1.8 33.5545L0.999997 33.0792" stroke="#02C9BF" stroke-linejoin="round"/>
<defs>
<linearGradient id="paint0_linear_8386_221089" x1="97" y1="1" x2="97" y2="49" gradientUnits="userSpaceOnUse">
<stop stop-color="#42E8E0"/>
<stop offset="1" stop-color="#42E8E0" stop-opacity="0"/>
</linearGradient>
</defs>
</svg>
