<svg width="194" height="49" viewBox="0 0 194 49" fill="none" xmlns="http://www.w3.org/2000/svg">
<path opacity="0.2" d="M1.8 1.9505L1 2.18812V49H193V33.0792L192.2 33.5545L191.4 34.0297L190.6 32.1287L189.8 33.7921L189 32.3663L188.2 38.0693L187.4 36.1683L186.6 36.4059L185.8 31.8911L185 32.8416L184.2 30.9406L183.4 31.6535H182.6L181.8 29.0396L181 31.6535L180.2 30.4653L179.4 27.6139L178.6 31.1782H177.8L177 34.505L176.2 15.495L175.4 13.5941L174.6 13.3564L173.8 16.6832L173 15.9703L172.2 18.8218L171.4 13.3564L170.6 14.0693L169.8 16.4455L169 16.6832L168.2 16.4455L167.4 15.0198L166.6 16.2079L165.8 14.7822L165 14.5446L164.2 16.4455L163.4 16.2079L162.6 14.7822L161.8 14.5446L161 13.8317L160.2 14.5446L159.4 14.7822L158.6 13.8317L157.8 14.3069H157L156.2 15.7327L155.4 15.495L154.6 15.7327L153.8 16.2079L153 16.4455L152.2 20.0099L151.4 20.2475L150.6 20.0099L149.8 20.2475L149 16.4455L148.2 16.6832L147.4 16.4455L146.6 14.3069L145.8 14.0693L145 14.5446L144.2 17.396L143.4 18.1089L142.6 15.2574L141.8 15.495L141 14.0693L140.2 16.4455L139.4 16.2079L138.6 14.0693L137.8 15.7327L137 16.2079L136.2 15.7327L135.4 14.3069L134.6 14.0693L133.8 15.0198L133 14.7822L132.2 9.79208L131.4 8.36634L130.6 6.22772L129.8 11.4554L129 11.6931L128.2 11.4554L127.4 14.5446L126.6 14.3069L125.8 14.5446L125 18.1089L124.2 17.1584L123.4 25.9505L122.6 23.5743L121.8 23.3366L121 25.7129L120.2 24.0495L119.4 23.5743L118.6 23.3366L117.8 23.5743L117 15.7327L116.2 15.9703L115.4 15.7327L114.6 18.3465L113.8 18.1089L113 18.3465L112.2 18.1089L111.4 15.495L110.6 15.9703L109.8 15.495L109 15.2574H108.2L107.4 14.7822L106.6 18.3465L105.8 18.1089L105 18.3465L104.2 18.1089L103.4 18.3465L102.6 18.1089L101.8 18.3465L101 18.1089L100.2 14.7822L99.4 14.5446L98.6 14.7822L97.8 14.5446H97L96.2 14.3069L95.4 14.5446L94.6 19.297L93.8 19.7723L93 17.396L92.2 17.6337L91.4 19.297L90.6 16.6832L89.8 16.4455L89 14.5446L88.2 14.3069L87.4 14.5446H86.6L85.8 16.4455L85 16.2079L84.2 15.2574L83.4 15.0198L82.6 15.9703L81.8 5.0396L81 7.41584L80.2 11.4554L79.4 15.9703L78.6 15.7327L77.8 15.9703L77 15.7327L76.2 13.1188L75.4 9.07921L74.6 9.55446L73.8 9.31683L73 13.3564L72.2 17.6337L71.4 14.0693L70.6 16.6832L69.8 18.3465L69 18.1089L68.2 18.3465L67.4 18.1089L66.6 18.3465L65.8 15.495L65 15.7327L64.2 15.495L63.4 20.2475L62.6 15.7327L61.8 16.9208L61 16.6832L60.2 15.9703H59.4L58.6 16.2079L57.8 18.1089L57 18.3465L56.2 18.1089L55.4 17.1584L54.6 16.9208L53.8 17.1584L53 14.5446L52.2 13.5941L51.4 16.9208L50.6 17.1584L49.8 16.9208L49 15.495L48.2 15.2574L47.4 14.0693L46.6 9.79208L45.8 10.0297L45 8.36634L44.2 9.31683H43.4L42.6 8.84158L41.8 11.2178L41 10.505L40.2 11.6931L39.4 14.5446L38.6 16.2079L37.8 16.4455L37 16.6832L36.2 19.5347L35.4 19.297L34.6 15.9703L33.8 12.4059L33 16.2079L32.2 14.7822L31.4 15.0198L30.6 12.8812L29.8 13.1188L29 12.8812L28.2 12.1683L27.4 6.70297L26.6 3.37624L25.8 3.13861L25 1.23762L24.2 1L23.4 3.37624L22.6 1L21.8 5.0396L21 2.18812L20.2 3.37624L19.4 3.13861L18.6 5.9901L17.8 11.2178L17 12.6436L16.2 9.79208L15.4 11.2178L14.6 16.9208L13.8 14.0693L13 10.9802L12.2 11.2178L11.4 10.7426L10.6 8.12871L9.8 8.84158L9 8.60396L8.2 8.36634L7.4 8.60396L6.6 8.36634L5.8 7.65347L5 1L4.2 1.23762L3.4 3.37624L2.6 3.61386L1.8 1.9505Z" fill="url(#paint0_linear_8386_221094)"/>
<path d="M1 2.18812L1.8 1.9505L2.6 3.61386L3.4 3.37624L4.2 1.23762L5 1L5.8 7.65347L6.6 8.36634L7.4 8.60396L8.2 8.36634L9 8.60396L9.8 8.84158L10.6 8.12871L11.4 10.7426L12.2 11.2178L13 10.9802L13.8 14.0693L14.6 16.9208L15.4 11.2178L16.2 9.79208L17 12.6436L17.8 11.2178L18.6 5.9901L19.4 3.13861L20.2 3.37624L21 2.18812L21.8 5.0396L22.6 1L23.4 3.37624L24.2 1L25 1.23762L25.8 3.13861L26.6 3.37624L27.4 6.70297L28.2 12.1683L29 12.8812L29.8 13.1188L30.6 12.8812L31.4 15.0198L32.2 14.7822L33 16.2079L33.8 12.4059L34.6 15.9703L35.4 19.297L36.2 19.5347L37 16.6832L37.8 16.4455L38.6 16.2079L39.4 14.5446L40.2 11.6931L41 10.505L41.8 11.2178L42.6 8.84158L43.4 9.31683H44.2L45 8.36634L45.8 10.0297L46.6 9.79208L47.4 14.0693L48.2 15.2574L49 15.4951L49.8 16.9208L50.6 17.1584L51.4 16.9208L52.2 13.5941L53 14.5446L53.8 17.1584L54.6 16.9208L55.4 17.1584L56.2 18.1089L57 18.3465L57.8 18.1089L58.6 16.2079L59.4 15.9703H60.2L61 16.6832L61.8 16.9208L62.6 15.7327L63.4 20.2475L64.2 15.4951L65 15.7327L65.8 15.4951L66.6 18.3465L67.4 18.1089L68.2 18.3465L69 18.1089L69.8 18.3465L70.6 16.6832L71.4 14.0693L72.2 17.6337L73 13.3564L73.8 9.31683L74.6 9.55446L75.4 9.07921L76.2 13.1188L77 15.7327L77.8 15.9703L78.6 15.7327L79.4 15.9703L80.2 11.4554L81 7.41584L81.8 5.0396L82.6 15.9703L83.4 15.0198L84.2 15.2574L85 16.2079L85.8 16.4455L86.6 14.5446H87.4L88.2 14.3069L89 14.5446L89.8 16.4455L90.6 16.6832L91.4 19.297L92.2 17.6337L93 17.396L93.8 19.7723L94.6 19.297L95.4 14.5446L96.2 14.3069L97 14.5446H97.8L98.6 14.7822L99.4 14.5446L100.2 14.7822L101 18.1089L101.8 18.3465L102.6 18.1089L103.4 18.3465L104.2 18.1089L105 18.3465L105.8 18.1089L106.6 18.3465L107.4 14.7822L108.2 15.2574H109L109.8 15.4951L110.6 15.9703L111.4 15.4951L112.2 18.1089L113 18.3465L113.8 18.1089L114.6 18.3465L115.4 15.7327L116.2 15.9703L117 15.7327L117.8 23.5743L118.6 23.3366L119.4 23.5743L120.2 24.0495L121 25.7129L121.8 23.3366L122.6 23.5743L123.4 25.9505L124.2 17.1584L125 18.1089L125.8 14.5446L126.6 14.3069L127.4 14.5446L128.2 11.4554L129 11.6931L129.8 11.4554L130.6 6.22772L131.4 8.36634L132.2 9.79208L133 14.7822L133.8 15.0198L134.6 14.0693L135.4 14.3069L136.2 15.7327L137 16.2079L137.8 15.7327L138.6 14.0693L139.4 16.2079L140.2 16.4455L141 14.0693L141.8 15.4951L142.6 15.2574L143.4 18.1089L144.2 17.396L145 14.5446L145.8 14.0693L146.6 14.3069L147.4 16.4455L148.2 16.6832L149 16.4455L149.8 20.2475L150.6 20.0099L151.4 20.2475L152.2 20.0099L153 16.4455L153.8 16.2079L154.6 15.7327L155.4 15.4951L156.2 15.7327L157 14.3069H157.8L158.6 13.8317L159.4 14.7822L160.2 14.5446L161 13.8317L161.8 14.5446L162.6 14.7822L163.4 16.2079L164.2 16.4455L165 14.5446L165.8 14.7822L166.6 16.2079L167.4 15.0198L168.2 16.4455L169 16.6832L169.8 16.4455L170.6 14.0693L171.4 13.3564L172.2 18.8218L173 15.9703L173.8 16.6832L174.6 13.3564L175.4 13.5941L176.2 15.4951L177 34.505L177.8 31.1782H178.6L179.4 27.6139L180.2 30.4653L181 31.6535L181.8 29.0396L182.6 31.6535H183.4L184.2 30.9406L185 32.8416L185.8 31.8911L186.6 36.4059L187.4 36.1683L188.2 38.0693L189 32.3663L189.8 33.7921L190.6 32.1287L191.4 34.0297L192.2 33.5545L193 33.0792" stroke="#F27870" stroke-linejoin="round"/>
<defs>
<linearGradient id="paint0_linear_8386_221094" x1="97" y1="1" x2="97" y2="49" gradientUnits="userSpaceOnUse">
<stop stop-color="#FF7337"/>
<stop offset="1" stop-color="#FF7337" stop-opacity="0"/>
</linearGradient>
</defs>
</svg>
