<svg width="95" height="64" viewBox="0 0 95 64" fill="none" xmlns="http://www.w3.org/2000/svg">
<path d="M34.2105 29.0887C31.7092 26.5911 27.9303 28.5455 26.7483 31.1316C25.3753 34.1369 24.8798 36.9237 22.8859 39.5925C22.6531 39.9054 22.3964 40.2065 22.1278 40.5017C24.0142 42.9756 22.7666 46.4297 19.1967 47.5456C16.0387 48.5316 10.9167 47.8172 6.86328 44.4163C10.9764 48.0061 18.5221 50.5745 26.2469 46.778C31.4584 44.2155 34.097 39.4212 34.8015 37.2248C35.5954 34.7568 36.3596 31.2319 34.2105 29.0887Z" fill="white"/>
<path d="M7.82991 18.0473C8.85073 17.3505 10.3133 16.6952 10.8625 17.8347C11.4117 18.9683 10.373 20.0134 9.37606 20.5389C8.90445 20.7869 8.46867 21.0408 8.05676 21.3005C9.00594 21.6253 9.31636 22.6467 9.03579 23.6209C10.2178 23.2313 11.2088 22.9538 12.0624 22.5227C16.0084 20.5448 16.1158 18.6967 15.7815 17.4273C15.1607 15.0833 11.7639 15.3962 9.19697 17.0376C4.15258 20.2614 2.28406 24.7723 1.60352 27.3643C1.86021 26.4963 2.18855 25.7052 2.55867 25.0026C4.40927 20.9404 7.34636 18.3779 7.82991 18.0473Z" fill="white"/>
<path d="M22.3193 31.8515C23.9072 31.8101 25.1609 30.4994 25.1191 28.9288C25.0773 27.3583 23.752 26.1184 22.1641 26.1597C20.5761 26.201 19.3225 27.5118 19.3643 29.0823C19.4121 30.6588 20.7314 31.8928 22.3193 31.8515Z" fill="white"/>
<path d="M7.76437 28.4393C7.78228 29.1773 8.40313 29.7559 9.14934 29.7382C9.89555 29.7205 10.4806 29.1478 10.4627 28.4097C10.4448 27.6717 9.82392 27.0517 9.0777 27.0754C8.33149 27.0931 7.74049 27.7071 7.76437 28.4393Z" fill="white"/>
<path d="M17.6865 20.7928C18.3252 20.775 18.8267 20.2496 18.8088 19.6178C18.7909 18.986 18.2596 18.4901 17.6208 18.5078C16.9821 18.5255 16.4806 19.051 16.4985 19.6827C16.5164 20.3086 17.0477 20.8105 17.6865 20.7928Z" fill="white"/>
<path d="M7.73043 44.3272C9.18107 44.6697 10.178 44.9295 11.6704 44.9708C15.497 45.0653 19.5743 43.2585 22.1234 40.5012C21.5025 39.6923 20.5533 38.9838 19.234 38.5056C14.506 36.7815 7.30658 38.0037 5.03213 31.8219C4.42919 30.1923 4.25607 28.9819 4.27995 27.9604C4.10682 28.2143 3.92773 28.5155 3.7367 28.8697C2.6741 30.8536 2.92482 33.6935 3.28301 34.6796C3.65313 35.6951 4.42919 36.7992 5.28882 37.6849C6.26188 38.6945 5.88579 40.4481 4.68588 40.4304C3.42031 40.4127 2.56664 38.541 2.01743 37.0649C1.49807 35.6538 1.19958 34.2899 1.07422 32.9968C1.21749 34.839 1.69507 36.8051 2.65619 38.8657C3.74267 41.2097 5.21719 43.0401 6.86482 44.4217C6.67379 44.2505 6.48276 44.0852 6.30367 43.908C6.45292 44.032 7.42598 44.2564 7.73043 44.3272Z" fill="white"/>
<path d="M19.1973 47.539C22.7672 46.4231 24.0148 42.969 22.1284 40.4951C19.5793 43.2524 15.502 45.0592 11.6755 44.9647C10.183 44.9293 9.1861 44.6636 7.73546 44.3211C7.42504 44.2503 6.45198 44.0259 6.30273 43.896C6.48183 44.0672 6.66689 44.2385 6.86389 44.4097C10.9113 47.8165 16.0333 48.525 19.1973 47.539Z" fill="white"/>
<path d="M5.42416 21.7436C6.57631 21.1709 7.44789 21.0941 8.05679 21.3008C8.46273 21.041 8.90449 20.7871 9.3761 20.5391C10.373 20.0137 11.4118 18.9686 10.8626 17.835C10.3133 16.7013 8.85076 17.3508 7.82995 18.0475C7.3464 18.3782 4.40931 20.9406 2.55273 25.0028C3.42431 23.3496 4.51079 22.1982 5.42416 21.7436Z" fill="white"/>
<path d="M4.67145 25.5341C4.54012 25.9651 4.43864 26.4256 4.36103 26.9275C4.31327 27.2523 4.28342 27.5947 4.27148 27.9549C5.49527 26.1422 6.39073 26.4847 8.1697 24.9614C8.59951 24.5894 8.89203 24.1112 9.02933 23.6211C8.02045 23.9576 6.8683 24.3709 5.54303 25.0381C5.23261 25.1975 4.94009 25.3629 4.67145 25.5341Z" fill="white"/>
<path d="M1.21639 29.3776C1.22833 29.2241 1.30593 28.4684 1.59845 27.3643C1.10893 28.9998 0.870145 30.9069 1.06715 32.9852C0.9776 31.7216 1.0373 30.5172 1.21639 29.3776Z" fill="white"/>
<path d="M8.05669 21.3008C6.38518 22.3754 5.24497 23.6212 4.67188 25.5342C4.94648 25.3689 5.239 25.2035 5.55539 25.0441C6.88066 24.3769 8.02684 23.9577 9.04169 23.6271C9.3163 22.647 9.00588 21.6196 8.05669 21.3008Z" fill="white"/>
<path d="M2.55401 25.0024C2.18389 25.7051 1.86152 26.4962 1.59886 27.3642C1.30634 28.4683 1.22874 29.224 1.2168 29.3775C1.47349 27.7834 1.95704 26.3132 2.55401 25.0024Z" fill="white"/>
<path d="M4.68464 40.4249C5.88455 40.4426 6.26064 38.689 5.28758 37.6794C4.42794 36.7937 3.65785 35.6896 3.28176 34.6741C2.92358 33.688 2.67285 30.8481 3.73545 28.8642C3.92648 28.51 4.10558 28.2088 4.2787 27.955C4.28467 27.5948 4.32048 27.2523 4.36824 26.9276C4.43988 26.4257 4.54733 25.9652 4.67867 25.5342C1.78933 27.3055 1.22818 29.4133 1.22818 29.4133C1.22818 29.4133 1.22818 29.4015 1.22818 29.3838C1.04909 30.5233 0.983424 31.7278 1.07894 32.9913C1.2043 34.2903 1.50279 35.6542 2.02215 37.0594C2.55942 38.5355 3.41906 40.4013 4.68464 40.4249Z" fill="white"/>
<path d="M8.05807 21.3007C7.44916 21.094 6.57758 21.1708 5.42543 21.7435C4.51207 22.1981 3.42558 23.3495 2.55401 25.0027C1.95704 26.3134 1.47349 27.7777 1.2168 29.3778C1.2168 29.3955 1.2168 29.4073 1.2168 29.4073C1.2168 29.4073 1.78392 27.2995 4.66728 25.5282C5.24634 23.6211 6.38655 22.3753 8.05807 21.3007Z" fill="white"/>
<path d="M88.8932 32.69C90.0334 32.3358 90.911 31.7276 91.5437 30.8183C92.1706 29.9091 92.9227 28.74 92.9227 27.2758C92.9227 26.213 92.7735 25.3096 92.475 24.5716C92.1765 23.8335 91.7467 23.2313 91.1856 22.7708C90.6244 22.3102 89.9498 21.9973 89.1499 21.7965C88.35 21.6017 87.4545 21.519 86.4576 21.519H78.291V41.2218H82.5713V24.6542H84.9293C85.4248 24.6542 85.8845 24.7074 86.3083 24.7605C86.7262 24.8078 87.0844 24.9376 87.3829 25.1148C87.6813 25.2919 87.9142 25.5576 88.0873 25.8941C88.2544 26.2307 88.344 26.6971 88.344 27.2876C88.344 27.8426 88.2604 28.309 88.0873 28.681C87.9201 29.0589 87.6813 29.3541 87.3829 29.5725C87.1023 29.7792 86.762 29.9268 86.374 30.0272C86.3561 30.0331 86.3382 30.039 86.3143 30.0449C85.1741 30.3519 83.9801 31.7748 84.792 33.3041C84.8517 33.4163 84.9054 33.4812 84.9532 33.5875L89.1738 41.2277H94.0749L88.8932 32.69Z" fill="white"/>
<path d="M52.0408 33.3043H54.8346V38.0219C54.6496 38.0632 54.363 38.0927 54.1242 38.1104C53.8855 38.1281 53.6407 38.1459 53.3721 38.1577C53.1034 38.1695 52.2975 38.1754 52.0408 38.1872C51.7841 38.199 50.4768 38.2049 50.2977 38.2049C49.0381 38.2049 48.1247 37.6145 47.5456 36.4336C46.9666 35.2527 46.68 33.5936 46.68 31.4504C46.68 29.3071 46.9785 27.648 47.5755 26.4671C48.1725 25.2862 49.1813 24.6958 50.5962 24.6958C51.3125 24.6958 52.6736 24.6604 53.5929 24.7017C53.9989 24.7194 55.1331 24.6368 55.6764 24.6072C57.1986 24.5246 57.8553 22.2987 57.8553 22.2987L58.0404 21.5665C57.0375 21.3894 53.9452 21.2949 50.5962 21.2949C47.7605 21.2949 45.9458 22.1629 44.5011 23.8987C43.0564 25.6346 42.3281 28.1203 42.3281 31.3559C42.3281 34.6741 43.0385 37.2071 44.4653 38.9666C45.892 40.726 47.6352 41.2751 50.2917 41.5999C51.3782 41.7298 53.9929 41.6235 55.2048 41.3932C56.3569 41.1689 57.4315 41.039 58.7388 40.7438V30.175H52.0408V33.3043Z" fill="white"/>
<path d="M75.4171 33.4815C75.2678 32.9088 74.9873 32.3833 74.5813 31.911C74.1694 31.4386 73.5963 31.0076 72.862 30.6238C72.1218 30.24 71.1666 29.8504 69.9906 29.4548C69.3519 29.2599 68.5042 29.0651 68.0923 28.8761C67.6803 28.6872 66.8088 28.5042 66.558 28.327C66.3073 28.1499 66.1342 27.961 66.0327 27.7661C65.9312 27.5654 65.8835 27.341 65.8835 27.0812C65.8835 26.3491 66.0864 25.8768 66.4983 25.4516C66.9043 25.0265 68.1639 24.814 69.1847 24.814C69.6265 24.814 72.5874 24.8789 73.1187 24.8494C73.8829 24.8022 74.9455 23.4619 75.2141 21.9209C75.2499 21.7142 75.1962 21.7201 74.9932 21.6729C74.4082 21.5371 70.0026 21.4131 69.119 21.4131C67.9012 21.4131 66.3013 21.5548 65.3999 21.8441C64.5045 22.1275 63.7523 22.5349 63.1553 23.0604C62.5583 23.5859 62.1106 24.1999 61.8241 24.9084C61.5375 25.617 61.3883 26.2782 61.3883 27.1108C61.3883 27.961 61.4838 28.6872 61.6748 29.3013C61.8659 29.9153 62.1763 30.4585 62.6001 30.9309C63.03 31.4032 63.5971 31.8165 64.3075 32.1767C65.0179 32.5309 65.8894 32.8675 66.9282 33.1804C67.5848 33.3752 69.0056 33.576 69.4414 33.7708C69.8772 33.9657 70.2234 34.1605 70.4742 34.3495C70.7249 34.5384 70.898 34.7332 70.9995 34.9399C71.101 35.1465 71.1487 35.3591 71.1487 35.5776C71.1487 36.4042 70.9279 37.0654 70.4921 37.5437C70.0503 38.0278 68.8803 38.0928 67.7221 38.0928C66.6834 38.0928 64.9701 38.0692 64.1224 38.0928C63.0658 38.1282 61.8957 38.0515 61.1793 40.2597L60.8809 41.2988C61.9375 41.3992 63.0837 41.4346 64.0508 41.5232C64.0746 41.5232 64.0985 41.5291 64.1164 41.5291C65.1671 41.6177 66.576 41.6177 67.7102 41.6177C69.0653 41.6177 70.5518 41.4524 71.5069 41.1276C72.4621 40.8029 73.2501 40.3541 73.8709 39.7932C74.4918 39.2323 74.9395 38.5769 75.2201 37.8389C75.5006 37.095 75.6379 36.3097 75.6379 35.4831C75.6439 34.7155 75.5663 34.0542 75.4171 33.4815Z" fill="white"/>
</svg>
