<svg width="160" height="64" viewBox="0 0 160 64" fill="none" xmlns="http://www.w3.org/2000/svg">
<path d="M11.9734 17.0645L0.00195312 24.8356V47.3709L5.98351 43.4895V32.2218L11.9734 28.3321V17.0645Z" fill="white"/>
<path d="M14.3135 28.3321L34.7727 32.2218L14.3135 17.0645V28.3321Z" fill="white"/>
<path d="M8.33105 43.4894L28.7903 47.3708L8.33105 32.2217V43.4894Z" fill="white"/>
<path d="M14.3135 17.0645L34.7727 32.2218V20.9541L14.3135 17.0645Z" fill="white"/>
<path d="M8.33105 32.2217L28.7903 36.1031V47.3708L8.33105 32.2217Z" fill="white"/>
<path d="M42.9681 19.218H43.2355H43.3524H43.4694H43.9623H44.2714H44.806H44.923H45.1151H45.2321H45.3825H45.4994H46.2597H46.9113H47.0282H47.4877H47.9806H48.131H48.7826H49.0917H49.359H49.7767H49.9689H50.4618H50.6122H51.2638H51.3807H51.8402V22.0595H51.7233H50.963H50.6957H50.4284H50.278H50.0858H49.593H49.4426H48.791H48.674H48.2145H48.0391H47.8887H47.7718H47.0867H46.5938H46.4434H45.7918H45.6749H45.2154V24.9419H45.4827H46.2429H46.4685H46.5855H46.7358H46.8528H47.0449H47.1619H47.3123H47.4292H48.1895H48.3398H48.4902H48.6072H49.2922H49.7851H49.9355H50.5871H50.7041H51.1635V27.636H50.6289H50.5119H50.3198H50.2028H50.0524H49.9355H49.1752H48.6824H48.415H47.8804H47.7634H47.0784H46.5855H46.4351H45.7835H45.6665H45.207V33.5482H45.1653H45.207H45.1318H45.1736H45.0984H45.1402H45.065H45.1068H45.0316H45.0734H44.9982H45.04H44.9481H44.9898H44.9146H44.9564H44.8812H44.923H44.8478H44.8896H44.8144H44.8562H44.781H44.8227H44.7476H44.7893H44.7141H44.7559H44.6807H44.7225H44.6473H44.6891H44.6139H44.6557H44.5303H44.5721H44.4969H44.5387H44.4635H44.5053H44.4301H44.4719H44.3967H44.4385H44.3633H44.405H44.3299H44.3716H44.2964H44.3382H44.263H44.3048H44.2296H44.2714H44.1962H44.238H44.1126H44.1544H44.0792H44.121H44.0458H44.0876H44.0124H44.0542H43.979H44.0207H43.9456H43.9873H43.9121H43.9539H43.8787H43.9205H43.8453H43.8871H43.8119H43.8537H43.7785H43.8202H43.6949H43.7367H43.6615H43.7033H43.6281H43.6699H43.5947H43.6365H43.5613H43.603H43.5279H43.5696H43.4944H43.5362H43.461H43.5028H43.4276H43.4694H43.3942H43.436H43.3608H43.4025H43.3274H43.3691H43.2939H43.3357H43.1937H43.2355H43.1603H43.202H43.1269H43.1686H43.0934H43.1352H43.06H43.1018H43.0266H43.0684H42.9932H43.035H42.9598H43.0015H42.9264H42.9681H42.8929H42.9347H42.8595H42.9013H42.776H42.8178H42.7426H42.7843H42.7091H42.7509H42.6757H42.7175H42.6423H42.6841H42.6089H42.6507H42.5755H42.6173H42.5421H42.5838H42.5087H42.5504H42.4752H42.517H42.4418H42.4836H42.3583H42.4H42.3249H42.3666H42.2914H42.3332H42.258H42.2998H42.2246H42.2664H42.2246V33.4008V32.7294V32.4264V32.1234V32.0088V31.8614V31.1899V31.0753V30.3301V30.0271V29.8797V29.2082V29.0936V28.9789V27.8161V27.5541V27.4395V27.3002V26.6288V26.1047V25.9901V25.8017V25.6871V25.5397V25.425V24.6799V24.0411V23.9347V23.4843V22.993V22.8456V22.215V22.1004V21.65V21.2406V21.0523V20.5691V20.4135V19.783V19.6684V19.218H42.9681ZM55.8502 19.218H56.0006H56.6522H56.7692H57.2286H57.9889H58.1392H58.8243H58.9412H59.0582H60.2445H60.8961H61.2052H61.4725H61.6229H61.7399H62.5001H62.6505H62.7674H63.4525H63.9454H64.0957H64.7474H64.8643H65.3238V22.0595H64.5636H64.338H63.6864H63.5694H63.1099H62.617H62.4667H61.8151H61.6981H61.2386H60.8209H60.6288H60.1359H59.9855H59.3339H59.2169H58.7574V24.9419H58.8744H59.6346H60.1275H60.2779H60.9629H61.1133H61.2637H61.4141H62.0657H62.3748H62.6421H62.8343H63.3272H63.4775H64.1292H64.2461H64.7056V27.595H64.1709H64.054H63.8618H63.7449H63.5945H63.4775H62.7173H62.2244H61.9571H61.4224H61.3054H60.6204H60.1275H59.9771H59.3255H59.2086H58.7491V30.5839C58.7992 30.6904 58.8911 30.7313 59.0164 30.6986H59.3255H60.0857H60.3113H60.9629H61.0799H61.5394H62.0323H62.1826H62.8343H62.9512H63.4107H63.8284H64.0205H64.5134H64.6638H65.3154H65.4324H65.8919V33.5401H65.7749H65.6245H64.9729H64.856H64.3965H63.6363H63.3272H63.018H62.7089H62.3998H61.6396H61.5227H61.4057H60.2361H59.9688H59.7432H59.4759H59.2503H59.0582H58.8326H58.6823H57.9972H57.5795H57.4291H57.2788H57.1284H56.978H56.3097H56.1927H55.7332V33.3927V32.7212V32.4182V32.1152V32.0006V31.8532V31.1817V31.0671V30.3301V30.0271V29.8797V29.2082V29.0936V28.9789V27.8161V27.5541V27.4395V27.3002V26.6288V26.1047V25.9901V25.8017V25.6871V25.5397V25.425V24.6799V24.0411V23.9347V23.4843V22.993V22.8456V22.215V22.1004V21.65V21.2406V21.0523V20.5691V20.4135V19.783V19.6684V19.218H55.8502ZM70.9879 19.1852H71.5226H71.7147H71.8651H72.5501H72.7005H72.8509H73.0012H73.6529H73.7698H74.2293L74.3797 19.4473L74.53 19.6684L74.6804 19.8895L74.8308 20.1105L74.9895 20.3398L75.1065 20.4545L75.1482 20.5691C75.1817 20.5937 75.19 20.6182 75.19 20.6428C75.3738 20.8393 75.4991 21.0195 75.5743 21.2078C75.7581 21.4044 75.8834 21.5845 75.9586 21.7729L76.109 21.9612L76.2593 22.1823C76.3262 22.2969 76.393 22.3788 76.4515 22.4443L76.4933 22.559C76.5852 22.6572 76.652 22.7555 76.6854 22.862C76.936 23.1404 77.1198 23.4024 77.2201 23.6481L77.3621 23.861C77.3955 23.8855 77.4039 23.9101 77.4039 23.9347C77.596 24.1476 77.738 24.3359 77.8216 24.4997L77.972 24.7208L78.0889 24.9419L78.2393 25.163L78.3897 25.3104L78.5066 25.4987L78.5818 25.6871C78.7489 25.8508 78.8658 26.0146 78.9243 26.1702L79.0413 26.3176L79.1165 26.465L79.2334 26.5796C79.3504 26.7516 79.4423 26.9072 79.5008 27.03L79.6177 27.1447L79.6929 27.2593L79.7347 27.3739L79.8099 27.4149C79.8934 27.595 79.9853 27.7343 80.0772 27.8243L80.119 27.939C80.1524 27.9635 80.1607 27.9881 80.1607 28.0127C80.3946 28.2665 80.5617 28.504 80.6536 28.7251L80.6954 28.463V28.201V27.898V27.7506V27.0792V26.6697V26.5223V26.3749V26.2275V26.0801V25.4414V25.3268V24.8682V24.6389V24.0084V23.8937V23.4434V22.9602V22.8128V22.1741V22.0595V21.6091V21.1996V21.0113V20.5282V20.3808V19.7421V19.6274V19.1852H81.1883H81.3387H82.0237H82.1741H82.3245H82.4748H83.1264H83.2434H83.7029V33.4745H83.5859H83.1264H82.7422H82.4748H82.2493H82.0571H81.9067H81.7564H81.606H81.489H81.3721H81.2551H81.1799H81.2551H81.1799H80.8708H80.7539H80.261L80.2192 33.4008C80.1273 33.2862 80.0688 33.1879 80.0271 33.0979C79.9936 33.0733 79.9853 33.0487 79.9853 33.0242C79.7514 32.7703 79.5843 32.5328 79.4924 32.3117C79.459 32.2872 79.4506 32.2626 79.4506 32.238L79.3003 32.017C79.1666 31.8696 79.0663 31.714 78.9912 31.5666L78.799 31.3455L78.6486 31.0834L78.4983 30.8214C78.3228 30.6331 78.1975 30.4611 78.114 30.2973L78.0388 30.2236C77.9385 30.0025 77.8216 29.8306 77.6963 29.6995L77.6545 29.6258L77.5793 29.5112L77.2368 28.9871C77.1449 28.8725 77.0864 28.7742 77.0446 28.6841C77.0112 28.6596 77.0029 28.635 77.0029 28.6104L76.9277 28.5695L76.7773 28.3075L76.7355 28.2338C76.6436 28.1191 76.5852 28.0209 76.5434 27.9308C76.4849 27.8653 76.4515 27.8079 76.4264 27.7424L76.2761 27.595L76.1257 27.3739L76.0505 27.1856L75.9753 27.1447L75.8333 26.8908L75.4908 26.4077L75.4156 26.2603L75.3404 26.1129L75.2234 25.9982L75.1482 25.8836L75.1065 25.769C74.9812 25.6297 74.8809 25.5069 74.7974 25.3923L74.7222 25.2449C74.6136 25.0975 74.5384 24.9746 74.4966 24.8682C74.4549 24.8436 74.4298 24.8191 74.4214 24.7945L74.3463 24.7208L74.3045 24.6471L74.1541 24.3851L73.8116 23.9019V33.4745H73.3187H73.1683H72.4833H72.3329H72.1825H72.0154H71.3638H71.2469H70.7874V33.3599V33.2125V33.0979V32.9505V32.279V31.976V31.673V31.5584V30.8132V30.6658V30.4775V30.3301V30.1417V29.6586V29.5112V28.8725V28.7578V28.3075V28.1601V27.9717V27.4886V27.3412V26.7025V26.5878V26.1374V25.8754V25.5806V25.2776V24.9828V24.8682V24.7536V23.5989V23.3369V23.1076V22.8456V22.6245V22.4361V22.215V22.0595V21.388V20.9786V20.8312V20.6756V20.5282V20.3808V19.7421V19.6274V19.1852H70.9879ZM89.7596 19.218H89.8766H90.0687H90.1857H90.3361H90.453H91.2132H91.4806H92.2408H92.5081H92.7337H92.9258H93.1514H93.3018H93.9868H94.4045H94.5549H94.7053H94.8557H95.006H95.6576H95.9668H96.2341L96.351 19.2589H96.468L96.7771 19.2999L97.387 19.4473C98.473 19.914 99.2499 20.6101 99.7178 21.5436C100.478 23.3123 100.11 24.7208 98.615 25.769C99.6927 26.2685 100.361 27.03 100.603 28.0536C101.038 30.5594 100.161 32.279 97.9717 33.2125H97.8548C97.554 33.3517 97.2784 33.4254 97.0194 33.4336L96.752 33.5073H96.6351L95.6827 33.5482H95.4154H95.148H95.0311H94.9141H93.7278H93.4605H93.235H92.9676H92.7337H92.5416H92.316H92.1656H91.4806H91.0629H90.9125H90.7621H90.6118H90.4614H89.8098H89.6928H89.2333V33.4008V32.7294V32.4264V32.1234V32.0088V31.8614V31.1899V31.0753V30.3301V30.0271V29.8797V29.2082V29.0936V28.9789V27.8161V27.5541V27.4395V27.3002V26.6288V26.1047V25.9901V25.8017V25.6871V25.5397V25.425V24.6799V24.0411V23.9347V23.4843V22.993V22.8456V22.215V22.1004V21.65V21.2406V21.0523V20.5691V20.4135V19.783V19.6684V19.218H89.7596ZM92.199 24.9828H92.4246H92.6167H93.1096H93.26H93.945H94.4797H94.7888H94.9058H95.0227H95.1397H95.2566H95.7161L95.9417 24.9419C96.7771 24.5243 97.1113 23.9019 96.9358 23.0749C96.7855 22.7146 96.5766 22.428 96.2842 22.215C96.1505 22.1741 96.0336 22.125 95.9417 22.0677L95.7913 22.0267H95.6744H95.5574C95.4321 22.0021 95.3318 21.9858 95.2483 21.9858H95.0562H94.4045H94.2542H94.062H93.5691H93.4187H92.7671H92.6502H92.1907V24.9828H92.199ZM92.199 30.7395H92.8507H93.0428H93.1598H93.2767H93.7696H94.1539H94.2709H94.3878H94.7721H95.4237C95.7579 30.7395 96.0419 30.7149 96.2591 30.6658C97.1447 30.2072 97.5206 29.5358 97.4037 28.6432C97.2115 28.029 96.8523 27.595 96.3343 27.333C96.1338 27.3002 95.9751 27.2675 95.8414 27.2184H95.1898H95.0394H94.8891H94.7721H94.0871H93.5691H93.4187H92.7671H92.6502H92.1907V30.7395H92.199ZM105.265 19.2917H105.457H105.607H106.259H106.677H106.827H107.479H107.788H108.055L108.097 28.3075L108.323 29.1263C108.966 30.2318 109.868 30.8132 111.029 30.8869C112.282 30.7968 113.201 30.2564 113.778 29.2819V29.1673C113.97 28.7906 114.07 28.4139 114.087 28.0454C114.129 27.7588 114.137 27.5132 114.129 27.3002V26.9973V26.6943V26.1702V26.0556V25.8672V25.7526V25.6052V25.4905V24.7536V24.123V24.0084V23.558V23.0749V22.9193V22.2887V22.1741V21.7237V21.3143V21.1259V20.6428V20.4872V19.8567V19.7421V19.2917H114.279H114.429H114.546H115.231H115.724H115.875H116.526H116.643H117.103V28.4958C117.078 28.6104 117.061 28.7169 117.061 28.7988L117.019 28.8725C116.986 29.2 116.936 29.4784 116.869 29.6914C116.284 31.2554 115.332 32.3936 114.003 33.0979C112.374 33.9331 110.77 34.0805 109.191 33.5482C106.017 32.3609 104.63 29.8715 105.031 26.0637V25.5397V25.1302V24.9419V24.8273V24.6799V24.5652V23.82V23.5989V23.3369V23.1076V22.8456V22.3624V21.1996V20.6756V20.5691V20.3808V20.2661V20.1187V20.0041V19.2589L105.265 19.2917ZM134.037 21.1996L133.961 21.2733L133.577 21.5763L133.502 21.691L133.385 21.8056L133.235 21.8793L133.118 21.994L133.001 22.1086L132.925 22.2232L132.775 22.2969C132.683 22.4116 132.608 22.5017 132.55 22.559L132.324 22.7064L132.282 22.7801L132.207 22.821C132.073 22.9848 131.948 23.1076 131.823 23.1977C130.219 21.9121 128.565 21.5026 126.86 21.9612C126.768 22.0513 126.66 22.1086 126.551 22.1495C126.409 22.2969 126.284 22.4034 126.167 22.4853L126.125 22.559L125.933 23.0094C125.95 23.5089 126.108 23.9101 126.426 24.2049L127.078 24.426L127.687 24.5406C127.88 24.6062 128.047 24.6389 128.18 24.6553L128.331 24.6962L128.481 24.7372L128.631 24.7781L128.782 24.8191L128.974 24.8928H129.091L129.241 24.9337L129.433 25.0074L129.584 25.0483H129.701C129.851 25.1057 129.976 25.1384 130.085 25.163L130.394 25.2367C130.511 25.294 130.62 25.3268 130.703 25.3513L130.82 25.3923L131.313 25.5806L131.388 25.6543C131.639 25.769 131.839 25.8918 131.998 26.031C132.04 26.0556 132.065 26.0801 132.073 26.1047L132.148 26.1456C132.265 26.2275 132.349 26.3012 132.416 26.3667C132.575 26.4814 132.7 26.596 132.8 26.7025C133.727 27.9717 133.961 29.2737 133.485 30.6331C132.984 32.017 132.09 32.9259 130.812 33.3599C126.835 34.5555 123.594 33.7939 121.079 31.0753L121.196 30.9279L121.347 30.8542C121.388 30.7968 121.438 30.7641 121.497 30.7395C121.597 30.6085 121.714 30.5184 121.84 30.4775C121.881 30.4202 121.931 30.3874 121.99 30.3628C122.032 30.3055 122.082 30.2728 122.14 30.2482L122.215 30.1335L122.332 30.0598L122.408 29.9861L122.525 29.9125L122.642 29.8715L122.717 29.7569L122.792 29.7159L122.867 29.6422L122.942 29.6013L123.017 29.5603L123.552 29.11C125.24 30.7313 127.119 31.3209 129.199 30.8705L129.316 30.7968L129.433 30.7559L129.475 30.6822L130.052 30.3055C130.144 30.0926 130.227 29.9206 130.319 29.7814C130.394 29.1018 130.177 28.5695 129.667 28.1764L129.517 28.1355L129.4 28.0618L129.25 28.0209L128.941 27.9472H128.824L128.673 27.9062L128.598 27.8653C128.364 27.8243 128.164 27.7752 127.988 27.7179H127.871L127.754 27.6769L127.445 27.6032C127.128 27.5623 126.86 27.505 126.643 27.4149C124.154 27.0955 122.784 25.8263 122.525 23.5989C122.583 20.7902 124.271 19.2016 127.604 18.8495C130.252 18.784 132.382 19.5701 134.037 21.1996ZM139.199 19.2589H139.35H140.035H140.185H140.336H140.486H141.138H141.255H141.714V24.6799H142.132H142.282H142.399H142.591H142.708H142.859H142.975H143.736H144.496H144.688H145.34H145.49H145.682H146.175H146.325H146.977H147.094H147.554V24.4178V24.1967V23.9347V23.1813V22.9193V22.6982V22.5098V22.2887V22.1332V21.4617V21.0523V20.9049V20.7493V20.6019V20.4545V19.8158V19.7011V19.2589H148.046H148.197H148.882H149.032H149.183H149.333H149.985H150.294H150.561V33.5482H150.068H149.918H149.233H149.082H148.932H148.782H148.13H148.013H147.554V33.2862V33.1716V33.0569V31.8941V31.6403V31.4192V31.1489V30.9279V30.7395V30.5184V30.371V29.6995V29.2901V29.1427V28.9953V28.8479V28.7005V28.0618V27.9472V27.4968H147.328H147.061H146.835H146.183H145.958H145.766H145.54H145.39H144.705H144.287H144.137H143.986H143.836H143.686H143.034H142.917H142.458H142.341H142.224H141.731V33.5564H141.238H141.087H140.402H140.252H140.102H139.951H139.3H139.183H138.723V33.4418V33.2944V33.1798V33.0324V32.3609V32.0497V31.7467V31.6403V30.8951V30.7395V30.5512V30.4038V30.2154V29.7323V29.5849V28.9462V28.8315V28.3812V28.2338V28.0454V27.5623V27.4149V26.7762V26.6615V26.2111V25.9491V25.6461V25.3431V25.0565V24.9419V24.8273V23.6726V23.4106V23.1813V22.9193V22.6982V22.5098V22.2887V22.1332V21.4617V21.0523V20.9049V20.7493V20.6019V20.4545V19.8158V19.7011V19.2589H139.199ZM156.551 19.2589H156.701H157.386H157.537H157.687H157.837H158.489H158.606H159.066V33.5482H158.573H158.422H157.737H157.587H157.436H157.286H156.634H156.518H156.058V33.4336V33.2862V33.1716V33.0242V32.3527V32.0497V31.7467V31.6403V30.8951V30.7395V30.5512V30.4038V30.2154V29.7323V29.5849V28.9462V28.8315V28.3812V28.2338V28.0454V27.5623V27.4149V26.7762V26.6615V26.2111V25.9491V25.6461V25.3431V25.0565V24.9419V24.8273V23.6726V23.4106V23.1813V22.9193V22.6982V22.5098V22.2887V22.1332V21.4617V21.0523V20.9049V20.7493V20.6019V20.4545V19.8158V19.7011V19.2589H156.551Z" fill="white"/>
<path d="M51.6141 41.6221L51.5055 41.704L51.0544 41.8596L50.9458 41.9087L50.8372 41.9333C50.7035 42.007 50.5949 42.0561 50.4863 42.0889L50.3526 42.1134L50.3025 42.1626H50.219L50.1688 42.2117H50.0853L50.0352 42.2608H49.9516L49.9015 42.3099L49.7929 42.3345L49.5005 42.441C49.0577 40.8524 48.0218 40.2136 46.3928 40.5248C45.1313 40.9998 44.5215 41.9169 44.5465 43.2844C44.3794 44.7011 44.7303 45.7656 45.5908 46.4862C46.3009 46.9611 47.0444 47.084 47.813 46.8547C48.7821 46.5435 49.3418 45.9212 49.4755 44.9877C49.6425 45.0204 49.7846 45.0695 49.9015 45.1432C50.0853 45.1924 50.2357 45.2415 50.3526 45.2988L50.4612 45.348L50.62 45.3971L50.7035 45.4217L50.8873 45.5036L50.9959 45.5281L51.0794 45.5772C51.1713 45.6018 51.2382 45.6264 51.2967 45.6591L51.6141 45.7656C50.904 47.7063 49.5673 48.7545 47.6208 48.9183C45.6493 49.0575 44.1622 48.4024 43.1514 46.953C42.0737 45.0859 41.9066 43.2353 42.6668 41.4174C43.4354 39.6814 44.7052 38.6987 46.468 38.4776C49.0745 38.3712 50.7871 39.4111 51.6141 41.6221ZM65.3817 38.7151H65.7326H66.5597H66.9356H67.0191H67.1528H67.2363H67.3449H67.4285H67.9632V38.797C68.0383 38.9526 68.0885 39.0918 68.1219 39.2146L68.172 39.3948L68.1971 39.5012C68.2138 39.5258 68.2221 39.5503 68.2221 39.5831C68.2388 39.6077 68.2472 39.6322 68.2472 39.665C68.2639 39.6896 68.2723 39.7141 68.2723 39.7469C68.314 39.8206 68.3474 39.8861 68.3558 39.9598L68.5145 40.3774V40.4593C68.5981 40.6231 68.6565 40.7705 68.6733 40.9015C68.7568 41.098 68.8153 41.2618 68.832 41.401C68.857 41.4501 68.8738 41.5075 68.8821 41.5566L68.9322 41.663C68.9573 41.7531 68.9824 41.8186 69.0158 41.8759V41.9578C69.0325 41.9824 69.0408 42.007 69.0408 42.0397C69.0826 42.1134 69.116 42.1789 69.1244 42.2526L69.2831 42.6703L69.3082 42.7767L69.3416 42.8095L69.3917 43.0469L69.4418 43.1534L69.492 43.2844L69.517 43.3663L69.5421 43.4727L69.5922 43.6283C69.6173 43.7184 69.6423 43.7839 69.6758 43.8412V43.9231C69.6925 43.9477 69.7008 43.9723 69.7008 44.005C69.7426 44.0787 69.776 44.1442 69.7844 44.2179L69.9431 44.6355L69.9681 44.7911L70.0517 44.9467L70.1018 45.1023V45.1842L70.1519 45.2661L70.177 45.3725L70.2021 45.5036C70.3441 45.8147 70.4276 46.0768 70.4694 46.2897C70.4861 46.3142 70.4945 46.3388 70.4945 46.3716C70.6365 46.6827 70.72 46.9448 70.7618 47.1577L70.8119 47.2396L70.837 47.346L70.862 47.4525L70.8871 47.5344L70.9122 47.6408C70.9289 47.6654 70.9372 47.6899 70.9372 47.7227C70.9539 47.7473 70.9623 47.7718 70.9623 47.8046C70.979 47.8291 70.9874 47.8537 70.9874 47.8865L71.0375 47.9684V48.0502C71.0542 48.0748 71.0625 48.0994 71.0625 48.1321C71.1043 48.2058 71.1377 48.2713 71.1461 48.345C71.2046 48.4761 71.238 48.5825 71.2547 48.6562L71.3048 48.8118H71.1461H71.0375H70.5529H70.2605H70.1519H70.0935H69.9849H69.8763H69.4251H69.3416H69.0241L68.974 48.6562V48.5498L68.9239 48.4679V48.386C68.8738 48.2877 68.8403 48.2058 68.8403 48.1239L68.7902 48.0421V47.9602L68.7651 47.8537L68.6816 47.6736L68.4978 47.0185H68.0049H67.4703H67.2865H67.1277H66.9941H66.8353H66.7267H66.2422H65.9498H65.8329H65.7242H65.6156H65.507H65.0559H64.9724H64.6549L64.6299 47.1495L64.6048 47.2805L64.5547 47.387C64.5296 47.4852 64.5045 47.5671 64.4711 47.649L64.4461 47.78L64.421 47.8291L64.3375 48.0912L64.3124 48.1976L64.2873 48.2795C64.2539 48.3696 64.2289 48.4433 64.2038 48.4924L64.1203 48.8036H64.0117H63.903H63.8195H63.2848H63.2013H62.7168H62.6332H61.8062L61.8563 48.5907L61.9398 48.3287L61.9649 48.2468L61.9899 48.1649L62.015 48.083L62.0401 48.0339L62.1737 47.6162L62.1988 47.5344L62.2239 47.4525L62.2489 47.346L62.299 47.2396L62.3826 46.953L62.4077 46.8711L62.4327 46.7892L62.4578 46.7073L62.4828 46.6582C62.533 46.4534 62.5914 46.2979 62.6416 46.1832L62.6917 46.0031L62.7168 45.9539C62.7669 45.7492 62.8254 45.5936 62.8755 45.479C62.9005 45.3889 62.9256 45.3234 62.959 45.2661L63.0091 45.0532L63.0927 44.873L63.1428 44.6601L63.1679 44.611C63.218 44.4063 63.2765 44.2507 63.3266 44.136L63.3767 43.9231L63.5939 43.3417L63.6441 43.1616L63.6691 43.0797L63.6942 42.9978C63.7443 42.834 63.8028 42.6948 63.8529 42.5802L63.903 42.4246L63.9281 42.3427V42.2608L63.9532 42.1789L64.137 41.704L64.162 41.5484L64.2121 41.4174L64.2623 41.3109C64.2957 41.1472 64.3458 41.0079 64.3959 40.8933L64.421 40.7623L64.4461 40.6804L64.4711 40.6313C64.5212 40.4265 64.5797 40.271 64.6299 40.1563L64.6549 40.0499L64.68 39.9434C64.7301 39.8451 64.7635 39.7469 64.7886 39.6568L64.8721 39.3948L64.8972 39.3129L65.1144 38.7069H65.3817V38.7151ZM66.5262 41.0243L66.4427 41.3109L66.4176 41.3601L66.284 41.835L66.1252 42.2772L66.1002 42.3263L65.9415 42.9077L65.9164 43.0142L65.7577 43.4564L65.7075 43.5874C65.6908 43.7266 65.6574 43.8494 65.5989 43.9559C65.5822 44.0541 65.5572 44.1524 65.5154 44.2425L65.4903 44.3489C65.4569 44.4554 65.4151 44.5455 65.3817 44.611L65.223 45.1924H65.3065H65.4151H65.5237H65.6323H65.741H66.1921H66.2756H66.5931H66.7017H66.9941H67.1277H67.2113H67.3199H67.4034H67.9381L67.888 44.9795L67.7292 44.48L67.5956 44.0378C67.5287 43.874 67.487 43.7348 67.4619 43.6201L67.4368 43.571C67.4034 43.4482 67.3617 43.3417 67.3282 43.2598L67.3032 43.1534L67.2781 43.0469L67.228 42.9159L67.2029 42.7603L67.1779 42.6539L67.1277 42.572L67.1027 42.4164L67.0776 42.3099C67.0526 42.2608 67.0358 42.2035 67.0275 42.1544L67.0024 42.0479C66.9356 41.9169 66.8938 41.7941 66.8688 41.6794L66.8437 41.5975L66.8186 41.5484L66.7685 41.3109L66.7434 41.229L66.6098 40.8851L66.5262 41.0243ZM82.6247 38.6823H82.8419H82.9254H83.0089H83.836H84.0198H84.1785H84.3623H84.521H84.6547H84.8134H84.922H85.4066H85.699H85.8076H85.9162H86.0248H86.1334H86.5845H86.6681H86.9855H87.0691L87.1192 38.7069H87.2027L87.3865 38.7315L87.4701 38.756L87.846 38.8379C89.5168 39.624 90.2269 40.8687 89.9596 42.5638C89.3581 44.57 87.9964 45.4462 85.8661 45.1924H85.7575H85.4651H85.3314H85.2479H85.1393H85.0557H84.521V48.7135H84.1702H84.0616H83.577H83.4684H83.3598H83.2512H82.8001H82.7166H82.3991V48.6316V48.5252V48.4433V48.345V47.8701V47.6572V47.4443V47.3624V46.8383V46.7319V46.6008V46.4944V46.3797V46.0358V45.9294V45.4872V45.4053V45.0941V44.9877V44.8566V44.5127V44.4063V43.9641V43.8822V43.571V43.3909V43.178V42.965V42.7521V42.6703V42.5884V41.7777V41.5975V41.4419V41.2618V41.1062V40.9752V40.8114V40.705V40.2382V39.9516V39.8451V39.7387V39.6322V39.5258V39.0836V39.0017V38.6823H82.6247ZM84.521 43.309H84.6297H84.7383H84.8469H85.1393H85.4317H85.9162H85.9997H86.0833H86.1919H86.6764H86.785C86.8936 43.268 86.9939 43.2353 87.0774 43.2271C87.8209 42.7931 88.0716 42.1953 87.8293 41.4419C87.6622 41.0653 87.4032 40.8032 87.0523 40.6558H86.9688C86.6931 40.5739 86.4425 40.5494 86.2169 40.5739H86.0833H85.9747H85.841H85.4901H85.3815H84.9304H84.8469H84.5294V43.309H84.521ZM101.497 38.7397H101.605H102.09H102.198H102.307H102.416H102.867H102.95H103.268V48.7627H102.917H102.808H102.324H102.215H102.107H101.998H101.547H101.463H101.146V48.6808V48.5743V48.4924V48.386V47.911V47.6981V47.4852V47.4033V46.8793V46.7728V46.6418V46.5353V46.4043V46.0604V45.9539V45.5117V45.4299V45.1187V45.0122V44.9058V44.5618V44.4554V44.0132V43.9313V43.6201V43.44V43.2271V43.0142V42.8013V42.7194V42.6375V41.8268V41.6467V41.4911V41.3109V41.1553V41.0243V40.8687V40.7623V40.2873V40.0007V39.8943V39.7878V39.6814V39.5749V39.1327V39.0508V38.7397H101.497ZM114.295 38.6823H114.404H114.487H114.596H115.08H115.189H115.674H115.832H116.016H116.551H116.768H116.985H117.202H117.42H117.954H118.038H118.121H118.948H119.132H119.291H119.466H119.625H119.759H119.918H120.026H120.511H120.803H120.912H121.02H121.129H121.237H121.689H121.772H122.09V40.6804H121.931H121.847H121.313H120.962H120.853H120.369H120.26H120.151H120.043H119.592H119.508H119.191V48.7381H118.84H118.731H118.247H118.138H118.029H117.921H117.47H117.386H117.069V48.5579V48.4761V48.345V48.2631V48.1567V48.0748V47.5507V47.4443V46.9693V46.8137V46.6336V46.1095V45.8966V45.6837V45.4708V45.2579V44.7338V44.6519V44.57V43.7594V43.5956V43.44V43.2598V43.1043V42.9732V42.8177V42.7112V42.2363V41.9496V41.8432V41.7367V41.6303V41.5238V41.0816V40.9998V40.6886H116.91H116.826H116.292H115.941H115.832H115.348H115.239H115.131H115.022H114.571H114.487H114.17V40.1563V40.0253V39.9434V39.837V39.7305V39.624V39.5176V39.0754V38.9935V38.6823H114.295ZM135.448 38.7151H135.799H136.626H137.002H137.085H137.219H137.302H137.411H137.495H138.029V38.797C138.104 38.9526 138.155 39.0918 138.188 39.2146L138.238 39.3948L138.263 39.5012C138.28 39.5258 138.288 39.5503 138.288 39.5831C138.305 39.6077 138.313 39.6322 138.313 39.665C138.33 39.6896 138.338 39.7141 138.338 39.7469C138.38 39.8206 138.414 39.8861 138.422 39.9598L138.581 40.3774V40.4593C138.664 40.6231 138.723 40.7705 138.739 40.9015C138.823 41.098 138.881 41.2618 138.898 41.401C138.923 41.4501 138.94 41.5075 138.948 41.5566L138.998 41.663C139.023 41.7531 139.048 41.8186 139.082 41.8759V41.9578C139.099 41.9824 139.107 42.007 139.107 42.0397C139.149 42.1134 139.182 42.1789 139.19 42.2526L139.349 42.6703L139.374 42.7767L139.399 42.8258L139.449 43.0633L139.5 43.1698L139.55 43.3008L139.575 43.3827L139.6 43.4891L139.65 43.6447C139.675 43.7348 139.7 43.8003 139.734 43.8576V43.9395C139.75 43.9641 139.759 43.9886 139.759 44.0214C139.8 44.0951 139.834 44.1606 139.842 44.2343L140.001 44.6519L140.026 44.8075L140.109 44.9631L140.16 45.1187V45.2006L140.21 45.2825L140.235 45.3889L140.26 45.5199C140.402 45.8311 140.485 46.0931 140.527 46.306C140.544 46.3306 140.552 46.3552 140.552 46.3879C140.694 46.6991 140.778 46.9611 140.82 47.1741L140.87 47.2559L140.895 47.3624L140.92 47.4688L140.945 47.5507L140.97 47.6572C140.987 47.6818 140.995 47.7063 140.995 47.7391C141.012 47.7636 141.02 47.7882 141.02 47.821C141.037 47.8455 141.045 47.8701 141.045 47.9028L141.095 47.9847V48.0666C141.112 48.0912 141.12 48.1158 141.12 48.1485C141.162 48.2222 141.195 48.2877 141.204 48.3614C141.262 48.4924 141.296 48.5989 141.312 48.6726L141.363 48.8282H141.204H141.095H140.611H140.318H140.21H140.101H139.993H139.884H139.433H139.349H139.032L138.982 48.6726V48.5661L138.932 48.4842V48.4024C138.881 48.3041 138.848 48.2222 138.848 48.1403L138.798 48.0584V47.9765L138.773 47.8701L138.689 47.6899L138.505 47.0348H138.021H137.486H137.302H137.144H137.01H136.851H136.743H136.258H135.966H135.857H135.749H135.64H135.531H135.08H134.997H134.679L134.654 47.1659L134.629 47.2969L134.579 47.4033C134.554 47.5016 134.529 47.5835 134.495 47.6654L134.47 47.7964L134.445 47.8455L134.362 48.1076L134.337 48.214L134.312 48.2959C134.278 48.386 134.253 48.4597 134.228 48.5088L134.145 48.82H134.036H133.927H133.844H133.309H133.226H132.741H132.658H131.831L131.881 48.6071L131.964 48.345L131.989 48.2631L132.014 48.1813L132.039 48.0994L132.064 48.0502L132.198 47.6326L132.223 47.5507L132.248 47.4688L132.273 47.3624L132.323 47.2559L132.407 46.9693L132.432 46.8874L132.457 46.8056L132.482 46.7237L132.507 46.6745C132.557 46.4698 132.616 46.3142 132.666 46.1996L132.716 46.0194L132.741 45.9703C132.791 45.7656 132.85 45.61 132.9 45.4954C132.925 45.4053 132.95 45.3398 132.983 45.2825L133.034 45.0695L133.117 44.8894L133.167 44.6765L133.192 44.6274C133.242 44.4226 133.301 44.2671 133.351 44.1524L133.401 43.9395L133.618 43.3581L133.668 43.178L133.693 43.0961L133.719 43.0142C133.769 42.8504 133.827 42.7112 133.877 42.5966L133.927 42.441L133.952 42.3591V42.2772L133.978 42.1953L134.161 41.7204L134.186 41.5648L134.236 41.4338L134.287 41.3273C134.32 41.1635 134.37 41.0243 134.42 40.9097L134.445 40.7787L134.47 40.6968L134.495 40.6476C134.546 40.4429 134.604 40.2873 134.654 40.1727L134.679 40.0662L134.704 39.9598C134.754 39.8615 134.788 39.7633 134.813 39.6732L134.896 39.4111L134.922 39.3293L135.139 38.7233H135.448V38.7151ZM136.601 41.0243L136.517 41.3109L136.492 41.3601L136.358 41.835L136.2 42.2772L136.175 42.3345L136.016 42.9159L135.991 43.0224L135.832 43.4646L135.782 43.5956C135.765 43.7348 135.732 43.8576 135.673 43.9641C135.657 44.0623 135.632 44.1606 135.59 44.2507L135.565 44.3571C135.531 44.4636 135.49 44.5537 135.456 44.6192L135.297 45.2006H135.381H135.49H135.598H135.707H135.815H136.267H136.35H136.668H136.776H137.069H137.202H137.286H137.394H137.478H138.013L137.962 44.9877L137.804 44.4882L137.67 44.046C137.603 43.8822 137.561 43.743 137.536 43.6283L137.511 43.5792C137.478 43.4564 137.436 43.3499 137.403 43.268L137.378 43.1616L137.353 43.0551L137.302 42.9241L137.277 42.7685L137.252 42.6621L137.202 42.5802L137.177 42.4246L137.152 42.3181C137.127 42.269 137.11 42.2117 137.102 42.1626L137.077 42.0561C137.01 41.9251 136.968 41.8022 136.943 41.6876L136.918 41.6057L136.893 41.5566L136.843 41.3191L136.818 41.2372L136.684 40.8933L136.601 41.0243ZM152.799 38.7151H152.908H153.393H153.501H153.61H153.718H154.169H154.253H154.57V46.7482H154.654H154.738H154.821H155.172H155.623H155.707H156.024H156.375H156.484H156.935H157.018H157.336H157.628H157.762H158.113H158.221H158.672H158.756H159.073V48.7463H158.89H158.731H158.547H158.012H157.795H157.578H157.361H157.144H156.609H156.525H156.442H155.615H155.431H155.272H155.088H154.93H154.796H154.637H154.529H154.044H153.752H153.643H153.535H153.426H153.317H152.866H152.783H152.465V48.6644V48.5579V48.4761V48.3696V47.8947V47.6899V47.477V47.3951V46.8711V46.7646V46.6336V46.5271V46.3961V46.0522V45.9457V45.5036V45.4217V45.1105V45.004V44.873V44.5291V44.4226V43.9804V43.8986V43.5956V43.4154V43.2025V42.9896V42.7767V42.6948V42.6129V41.8022V41.6221V41.4665V41.2864V41.1308V40.9998V40.8442V40.7295V40.2546V39.968V39.8615V39.7551V39.6486V39.5422V39.1V39.0181V38.7069H152.799V38.7151Z" fill="white"/>
</svg>
