<svg width="106" height="64" viewBox="0 0 106 64" fill="none" xmlns="http://www.w3.org/2000/svg">
<path fill-rule="evenodd" clip-rule="evenodd" d="M5.23828 21.9713V45.0987H11.0669V34.3813L17.7423 45.0987H25.263L18.5886 33.9111L25.6397 21.9713H18.212L11.0669 33.6285V21.9713H5.23828ZM37.2974 45.0987V21.9713H44.5365L52.2458 34.9455V21.9713H58.0744V45.0987H50.7418L43.126 32.2196V45.0987H37.2974ZM81.3425 21.9713H88.0653L91.4495 27.2835L94.4108 21.9713H101.134L94.6 33.5823L101.885 45.0987H94.8815L91.0739 39.0353L87.6424 45.0987H80.9197L88.018 32.5006L81.3425 21.9713ZM31.4446 29.1401C31.9148 29.1401 32.5258 28.952 32.9959 28.247L39.2953 17.5291C40.047 16.2599 39.0132 14.7559 37.7439 14.7559H25.1459C23.8767 14.7559 22.8428 16.2599 23.5945 17.5291L29.8933 28.247C30.3635 28.952 30.975 29.1401 31.4446 29.1401Z" fill="white"/>
<path fill-rule="evenodd" clip-rule="evenodd" d="M76.0126 37.2131C75.0458 38.7105 73.478 39.7058 71.7067 39.7058C68.7701 39.7058 66.389 37.0272 66.389 33.7233C66.389 30.4194 68.1344 27.4113 71.7067 27.4113C74.6691 27.4113 76.2672 29.5868 76.5399 31.3647L68.4534 31.3669C68.0545 32.0879 67.847 32.8992 67.8507 33.7233C67.8507 34.3804 67.9783 35.0519 68.2059 35.6128L83.6454 35.604C83.7505 34.9606 83.8054 34.3958 83.8054 33.7233C83.8054 27.0412 80.027 21.6245 71.7061 21.6245C65.0246 21.6245 59.7949 27.0418 59.7949 33.7233C59.7949 40.4048 65.0246 45.8226 71.7061 45.8226C77.1762 45.8226 81.7993 42.192 83.2951 37.2097L76.0126 37.2131ZM98.8534 30.5172C98.5205 30.5167 98.1907 30.582 97.883 30.7092C97.5754 30.8364 97.2958 31.0231 97.0605 31.2585C96.8251 31.494 96.6385 31.7736 96.5114 32.0814C96.3844 32.3891 96.3193 32.7189 96.3199 33.0518C96.3199 34.4536 97.4511 35.5853 98.8534 35.5853C100.256 35.5853 101.388 34.453 101.388 33.0518C101.389 32.7188 101.324 32.3889 101.196 32.0811C101.069 31.7733 100.883 31.4936 100.647 31.2581C100.412 31.0227 100.132 30.836 99.8241 30.7088C99.5163 30.5817 99.1864 30.5166 98.8534 30.5172Z" fill="white"/>
<path fill-rule="evenodd" clip-rule="evenodd" d="M98.8614 35.3627C97.5669 35.3627 96.5781 34.3327 96.5781 33.0525C96.5781 31.7443 97.5531 30.7412 98.8614 30.7412C100.162 30.7412 101.131 31.7509 101.131 33.0448C101.131 34.325 100.155 35.3627 98.8614 35.3627Z" fill="black"/>
<path fill-rule="evenodd" clip-rule="evenodd" d="M100.034 32.3808C100.034 31.8386 99.7356 31.5537 99.0582 31.5537H97.9336V34.5491H98.1915V33.1666H98.9713L99.8726 34.5491H100.157L99.2627 33.1732C99.6883 33.1056 100.034 32.868 100.034 32.3808Z" fill="white"/>
<path fill-rule="evenodd" clip-rule="evenodd" d="M98.8263 32.9438H98.1895V31.7773H99.0166C99.3751 31.7773 99.7749 31.9126 99.7749 32.3746C99.7749 32.8954 99.2811 32.9438 98.8263 32.9438Z" fill="black"/>
</svg>
