<svg width="128" height="64" viewBox="0 0 128 64" fill="none" xmlns="http://www.w3.org/2000/svg">
<path d="M37.688 33.1163C37.395 32.6971 36.9806 32.3543 36.49 32.1132C34.5976 31.1674 32.0041 31.5293 29.9968 31.9163C27.3396 32.4305 24.7717 32.9385 22.2038 33.4526C19.8204 33.9285 17.4565 34.3856 15.0925 34.7793C15.6341 33.3064 16.2394 31.8211 16.8002 30.2976C17.7751 27.9108 18.75 25.524 19.6359 23.1372C20.4768 21.1122 21.3371 18.9159 21.4453 16.7195C21.5155 15.3357 20.6744 13.7233 18.9604 14.0597C18.3168 14.1867 17.7496 14.5421 17.208 14.8976C15.2772 16.1545 13.7543 17.6526 12.1995 19.3031C10.4281 21.2646 8.74583 23.3086 7.24203 25.4415C6.11416 27.0412 5.05001 28.698 4.11332 30.4055C3.06191 32.3164 1.75565 34.6016 2.14435 36.8549C2.36736 38.1628 3.52071 39.0576 4.89071 39.0704C5.92936 39.0831 6.96804 39.0831 8.0003 39.0197C7.98756 39.064 7.96844 39.1086 7.9557 39.1529C7.23565 41.2351 6.64306 43.5395 7.08909 45.7421C7.57975 48.186 9.40217 49.8554 12.0147 49.9762C13.0024 50.0204 13.9965 49.9 14.9714 49.735C17.9981 49.227 20.9039 48.2051 23.6885 46.9672C26.3583 45.7801 28.9836 44.447 31.3986 42.8285C32.6349 41.9968 33.8199 41.0889 34.9162 40.0926C36.5793 38.5754 39.3448 35.4903 37.688 33.1163ZM9.45953 35.4142C9.43403 35.4712 9.40855 35.5346 9.37669 35.5919C8.54832 35.6872 7.71992 35.7697 6.89155 35.8394L5.08825 35.9219C5.08825 35.649 5.17109 35.2744 5.29853 34.8998C5.47695 34.3856 5.65537 33.789 5.91662 33.2813C6.89155 31.1483 8.30616 29.0154 9.72079 26.9713C11.1354 24.9273 12.7284 22.9658 14.4107 21.0869C15.2964 20.1474 16.1821 19.2967 17.0678 18.4461C17.3992 18.1224 17.7369 17.8494 18.0682 17.5892C17.9854 17.8177 17.8898 18.0526 17.7751 18.2747C17.3354 19.3856 16.8002 20.4901 16.2713 21.601C15.2072 23.9053 13.971 26.1207 12.8176 28.4187C11.6643 30.7167 10.5237 33.0274 9.45953 35.4142ZM31.7746 37.1152C30.7997 37.7946 29.7357 38.3912 28.6778 38.9879C26.5559 40.1814 24.16 41.1208 21.8597 41.8888C19.5593 42.7396 17.1698 43.3362 14.8631 43.679C14.245 43.7615 13.7097 43.8504 13.1808 43.8504C13.0661 43.8504 12.9451 43.8504 12.8304 43.8504C12.8431 42.9301 13.0151 41.8573 13.2701 40.7844C13.4485 39.9909 13.6587 39.2417 13.8881 38.4737C13.92 38.3658 15.6405 38.239 15.838 38.2135C16.5134 38.1183 17.1889 38.0166 17.8643 37.9087C19.2152 37.6994 20.5598 37.4707 21.9044 37.2423C24.5422 36.7915 27.1803 36.3344 29.8312 35.9538C31.08 35.7697 32.3291 35.649 33.5843 35.5473C33.1001 36.0424 32.4373 36.6074 31.7746 37.1152Z" fill="white"/>
<path fill-rule="evenodd" clip-rule="evenodd" d="M126.027 25.7875V24.1205H123.123V21.5348H121.288V24.1205H119.853H119.653H117.05V23.2699C117.05 22.4194 117.15 21.9431 117.384 21.6029C117.684 21.1946 118.252 20.9565 118.785 20.9565C119.052 20.9565 119.319 20.9905 119.453 21.0245L119.853 19.2894C119.586 19.2214 119.152 19.1533 118.752 19.1533C117.517 19.1533 116.416 19.7317 115.749 20.6843C115.348 21.2627 115.181 22.0451 115.181 23.3039V24.0864H113.046V25.7535H115.181V33.3744H117.017V25.7875H119.62H119.82H121.255V30.0402C121.255 31.061 121.455 31.9115 121.989 32.5239C122.556 33.2042 123.424 33.6125 124.558 33.6125C125.092 33.6125 125.659 33.5445 125.993 33.4083L125.626 31.7073C125.359 31.7753 124.892 31.8092 124.625 31.8092C124.124 31.8092 123.624 31.6391 123.357 31.2991C123.123 31.027 123.09 30.6187 123.09 30.1083V25.7875H126.027ZM78.6756 26.6041C79.0091 27.0124 79.2094 27.5568 79.2094 28.7475V33.4083H81.0447V28.8496C81.0447 27.2506 80.7443 26.298 80.1439 25.5495C79.3763 24.5288 78.1749 23.9164 76.8403 23.9164C75.572 23.9164 74.6713 24.4948 74.1706 24.9371V19.3575H72.3354V33.4083H74.1706V27.0124C74.7044 26.332 75.572 25.6856 76.7735 25.6856C77.5411 25.6856 78.2418 26.0598 78.6756 26.6041ZM46.2734 19.3576H48.2424V31.5032H54.3489V33.4086H46.2734V19.3576ZM56.4176 24.1204H58.2532V33.4083H56.4176V24.1204ZM57.319 19.5619C56.6517 19.5619 56.1176 20.1062 56.1176 20.8207C56.1176 21.5351 56.6517 22.0455 57.319 22.0455C57.9863 22.0455 58.5535 21.5011 58.5535 20.8207C58.5535 20.1402 58.0197 19.5619 57.319 19.5619ZM64.8937 23.9166C65.8948 23.9166 66.8959 24.2228 67.7304 24.9713H67.7969V24.1208H69.5656V32.9664C69.5656 34.3614 69.3987 35.2798 69.0318 36.0284C68.2976 37.4573 66.8959 38.3078 65.0941 38.3078C62.7247 38.3078 61.2232 37.083 60.656 36.1643L62.024 34.8715C62.6916 35.756 63.5257 36.5386 65.0272 36.5386C65.9951 36.5386 66.7959 36.1643 67.2297 35.4839C67.5635 34.9738 67.7304 34.2591 67.7304 33.1026V32.5581C66.9628 33.2385 66.0617 33.5788 64.9606 33.5788C64.1264 33.5788 63.292 33.3407 62.6581 32.9664C61.2567 32.1499 60.3222 30.619 60.3222 28.7477C60.3222 26.8765 61.2898 25.3115 62.6581 24.495C63.292 24.1208 64.0261 23.9166 64.8937 23.9166ZM65.161 31.8095C66.0951 31.8095 67.0296 31.3333 67.6635 30.4828V27.0126C67.0962 26.2641 66.162 25.6857 65.0606 25.6857C63.2923 25.6857 62.1243 27.1147 62.1243 28.7477C62.1243 30.4149 63.3923 31.8095 65.161 31.8095ZM87.7184 31.7073L88.0856 33.4083C87.7184 33.5106 87.1511 33.6125 86.6507 33.6125C85.5162 33.6125 84.6486 33.2042 84.0813 32.5239C83.5472 31.9115 83.3471 31.061 83.3471 30.0404V25.7877V24.1206V21.535H85.1824V24.1206H88.0856V25.7877H85.1824V30.1084C85.1824 30.6187 85.2158 31.027 85.4493 31.2991C85.7162 31.6394 86.2169 31.8095 86.7173 31.8095C86.9842 31.8095 87.4515 31.7756 87.7184 31.7073ZM96.4277 30.7549C96.4277 28.8498 94.559 28.1693 93.1241 27.7951C92.223 27.5569 91.4889 27.3528 91.4889 26.7064C91.4889 25.9579 92.2565 25.5497 93.1241 25.5497C93.8583 25.5497 94.5255 25.8559 95.0928 26.2981L96.0273 24.9373C95.2931 24.3589 94.3255 23.9166 92.9906 23.9166C91.3554 23.9166 89.6205 24.8352 89.6205 26.8085C89.6205 28.1013 90.6216 28.8157 91.7227 29.19C92.0276 29.291 92.341 29.3725 92.6432 29.451L92.6435 29.4511C93.6649 29.7166 94.559 29.9489 94.559 30.7889C94.559 31.5375 93.7582 31.9457 92.9572 31.9457C92.0564 31.9457 91.122 31.6054 90.2543 30.9251L89.3201 32.32C90.3212 33.1366 91.5558 33.6128 92.9906 33.6128C94.7928 33.6128 96.4277 32.5242 96.4277 30.7549ZM107.273 28.8496V33.4083H105.404V28.7475C105.404 27.5568 105.204 27.0124 104.87 26.6041C104.47 26.0258 103.769 25.6856 103.002 25.6856C101.8 25.6856 100.933 26.332 100.399 27.0124V33.4083H98.5636V19.3575H100.399V24.9371C100.899 24.4948 101.8 23.9164 103.068 23.9164C104.403 23.9164 105.605 24.5288 106.372 25.5495C106.973 26.298 107.273 27.2506 107.273 28.8496ZM110.476 19.5619C109.809 19.5619 109.275 20.1062 109.275 20.8207C109.275 21.5351 109.809 22.0455 110.476 22.0455C111.144 22.0455 111.711 21.5011 111.711 20.8207C111.711 20.1402 111.144 19.5619 110.476 19.5619ZM109.542 24.1204H111.377V33.4083H109.542V24.1204ZM77.9077 42.7978C77.9077 44.1928 78.9756 45.2814 80.3436 45.2814C81.2781 45.2814 81.9454 44.8392 82.3792 44.295L83.3137 45.1455C82.6796 45.962 81.6119 46.5402 80.3105 46.5402C78.108 46.5402 76.5397 44.8731 76.5397 42.7978C76.5397 40.7225 78.0746 39.0555 80.3105 39.0555C81.3781 39.0555 82.2792 39.4638 82.9133 40.1101L82.0123 41.0629C81.5785 40.6206 80.9778 40.3143 80.2771 40.3143C78.9087 40.3143 77.9077 41.4032 77.9077 42.7978ZM85.1155 46.4389L88.1853 39.1583H89.1198L92.1896 46.4389H90.7547L90.0874 44.8398H87.2177L86.5504 46.4389H85.1155ZM88.686 41.4378L87.7849 43.581H89.5867L88.686 41.4378ZM97.1287 39.1583H94.4593V46.4389H95.8273V43.4788H97.1287C98.0297 43.4788 98.597 43.2407 98.9974 42.8324C99.3643 42.4581 99.5646 41.914 99.5646 41.3355C99.5646 40.7571 99.3643 40.213 98.9974 39.8387C98.597 39.3964 98.0632 39.1583 97.1287 39.1583ZM97.9294 41.9479C97.7628 42.1181 97.5291 42.2543 97.0618 42.2543H95.8273V40.4511H97.0618C97.5291 40.4511 97.7628 40.553 97.9294 40.7571C98.0963 40.9273 98.1632 41.1314 98.1632 41.3695C98.1632 41.5736 98.0963 41.7778 97.9294 41.9479ZM102.001 39.1583H103.369V46.4389H102.001V39.1583ZM105.871 40.4171H107.74V46.4389H109.108V40.4171H111.01V39.1583H105.871V40.4171ZM112.111 46.4389L115.181 39.1583H116.116L119.186 46.4389H117.751L117.084 44.8398H114.214L113.547 46.4389H112.111ZM115.649 41.4378L114.748 43.581H116.55L115.649 41.4378ZM123.023 39.1583H121.622V46.4389H126.027V45.1801H123.023V39.1583Z" fill="white"/>
</svg>
