<svg width="179" height="43" viewBox="0 0 179 43" fill="none" xmlns="http://www.w3.org/2000/svg">
<path d="M76.6721 11.1926C77.3992 11.345 78.1262 11.4669 78.823 11.7107C81.5494 12.5945 83.0641 14.606 83.882 17.3488C83.1853 17.3488 82.5491 17.4098 81.9432 17.3183C81.7615 17.2879 81.5494 16.9526 81.4282 16.7393C80.065 13.6002 76.6115 12.1983 73.5519 13.5698C72.0675 14.2402 71.0072 15.3374 70.3407 16.8002C68.7655 20.3355 68.8866 23.8098 70.9466 27.0707C72.1584 28.9907 74.0063 29.905 76.2783 29.7526C78.5806 29.6002 80.1559 28.2593 81.1556 26.2174C81.4282 25.6688 81.5797 25.0898 81.7918 24.4802C82.4279 24.4802 83.1247 24.4802 83.8517 24.4802C83.5488 26.2479 82.852 27.8022 81.6706 29.1126C80.3983 30.5145 78.823 31.3679 76.9448 31.5812C76.8236 31.5812 76.7024 31.6422 76.6115 31.7031C76.0663 31.7031 75.521 31.7031 75.006 31.7031C74.8848 31.6726 74.7939 31.6117 74.6727 31.5812C72.219 31.2764 70.2499 30.1488 68.9775 28.0155C67.0387 24.785 66.7661 21.2498 67.7961 17.6841C68.6443 14.6669 70.4922 12.4726 73.5822 11.5583C74.0366 11.406 74.5213 11.345 75.006 11.2231C75.4907 11.1926 76.0965 11.1926 76.6721 11.1926Z" fill="white" stroke="white" stroke-width="0.3002" stroke-miterlimit="10"/>
<path d="M178.58 31.0325C174.703 31.0325 170.795 31.0325 166.856 31.0325C166.856 24.6325 166.856 18.2325 166.856 11.8325C167.523 11.8325 168.159 11.8325 168.856 11.8325C168.856 17.5925 168.856 23.322 168.856 29.1735C172.128 29.1735 175.339 29.1735 178.55 29.1735C178.58 29.783 178.58 30.423 178.58 31.0325Z" fill="white" stroke="white" stroke-width="0.3002" stroke-miterlimit="10"/>
<path d="M102.999 31.0629C102.302 31.0629 101.726 31.0934 101.12 31.0325C100.939 31.0325 100.727 30.7886 100.636 30.6058C100.03 28.9601 99.4239 27.3448 98.8786 25.6991C98.7272 25.3029 98.5757 25.1506 98.1516 25.1506C95.7887 25.181 93.4258 25.181 91.0628 25.1506C90.6387 25.1506 90.457 25.2725 90.3055 25.6686C89.6996 27.4667 89.0332 29.2344 88.397 31.002C87.67 31.002 86.9429 31.002 86.1553 31.002C86.6097 29.7525 87.0338 28.5334 87.4882 27.3448C89.3058 22.4077 91.1234 17.4401 92.9108 12.5029C93.0925 12.0153 93.3046 11.7106 93.9105 11.7715C94.6072 11.8629 95.516 11.5886 96.0007 11.9239C96.4854 12.2591 96.546 13.1734 96.7884 13.8439C98.7878 19.3296 100.787 24.8458 102.756 30.3315C102.847 30.5753 102.908 30.7886 102.999 31.0629ZM94.6072 13.7829C93.4561 17.0134 92.3655 20.122 91.2143 23.2915C93.4863 23.2915 95.6978 23.2915 97.9698 23.2915C96.849 20.122 95.7584 17.0134 94.6072 13.7829Z" fill="white" stroke="white" stroke-width="0.3002" stroke-miterlimit="10"/>
<path d="M148.772 31.0326C148.045 31.0326 147.348 31.0326 146.561 31.0326C146.651 30.7887 146.682 30.5754 146.773 30.3926C148.984 24.3888 151.165 18.3849 153.346 12.3811C153.498 11.924 153.71 11.7716 154.195 11.8021C154.8 11.863 155.406 11.8326 155.982 11.8021C156.285 11.8021 156.467 11.863 156.588 12.1983C158.829 18.4154 161.071 24.6021 163.313 30.8192C163.343 30.8802 163.313 30.9411 163.343 31.063C162.707 31.063 162.071 31.0935 161.435 31.0326C161.283 31.0326 161.102 30.7888 161.041 30.6059C160.435 29.0211 159.859 27.4059 159.314 25.7907C159.163 25.3335 158.981 25.1507 158.466 25.1507C156.164 25.1811 153.831 25.1811 151.529 25.1507C151.044 25.1507 150.862 25.3335 150.711 25.7602C150.044 27.5278 149.378 29.2649 148.772 31.0326ZM158.315 23.2916C157.194 20.0916 156.073 16.983 154.952 13.7526C153.801 17.0135 152.71 20.1221 151.559 23.2916C153.831 23.2916 156.012 23.2916 158.315 23.2916Z" fill="white" stroke="white" stroke-width="0.3002" stroke-miterlimit="10"/>
<path d="M108.844 22.8344C108.844 25.6077 108.844 28.2896 108.844 31.0325C108.147 31.0325 107.511 31.0325 106.814 31.0325C106.814 24.663 106.814 18.263 106.814 11.8325C107.027 11.8325 107.208 11.802 107.42 11.802C109.692 11.802 111.964 11.802 114.236 11.802C117.205 11.802 119.568 13.9658 119.841 16.861C120.113 19.7563 118.084 22.2553 115.115 22.7734C114.782 22.8344 114.418 22.8344 114.055 22.8344C112.358 22.8649 110.631 22.8344 108.844 22.8344ZM108.874 13.7525C108.874 16.1906 108.874 18.5982 108.874 20.9753C108.996 21.0058 109.056 21.0058 109.147 21.0058C110.874 21.0058 112.57 21.0363 114.297 20.9753C116.175 20.9144 117.72 19.2687 117.75 17.4096C117.811 15.4896 116.418 13.8744 114.479 13.783C112.631 13.661 110.783 13.7525 108.874 13.7525Z" fill="white" stroke="white" stroke-width="0.3002" stroke-miterlimit="10"/>
<path d="M139.896 31.0326C139.169 31.0326 138.533 31.0326 137.806 31.0326C137.806 25.2726 137.806 19.5126 137.806 13.6916C135.655 13.6916 133.595 13.6916 131.475 13.6916C131.475 13.0516 131.475 12.4726 131.475 11.863C136.352 11.863 141.229 11.863 146.167 11.863C146.167 12.4421 146.167 13.0211 146.167 13.6916C144.077 13.6916 142.017 13.6916 139.866 13.6916C139.896 19.4821 139.896 25.2116 139.896 31.0326Z" fill="white" stroke="white" stroke-width="0.3002" stroke-miterlimit="10"/>
<path d="M126.627 31.0326C125.961 31.0326 125.355 31.0326 124.688 31.0326C124.688 24.6326 124.688 18.263 124.688 11.863C125.325 11.863 125.961 11.863 126.627 11.863C126.627 18.2326 126.627 24.6021 126.627 31.0326Z" fill="white" stroke="white" stroke-width="0.3002" stroke-miterlimit="10"/>
<path d="M24.9929 26.888C24.9323 26.888 24.8111 26.949 24.7808 27.0099C24.6899 27.1318 24.6597 27.2537 24.6294 27.4061C24.387 28.4423 23.9932 29.448 23.5085 30.3928C23.0844 31.2461 22.5391 32.0385 21.9029 32.7699C21.085 33.6537 20.1156 34.2633 18.9644 34.5985C18.3283 34.7814 17.6618 34.9337 17.0256 34.9337C14.481 34.9642 11.906 34.9337 9.36133 34.9337C9.27045 34.9337 9.17956 34.9033 9.0281 34.9033C9.0281 34.7509 9.0281 34.5985 9.0281 34.4766C9.0281 30.8804 9.0281 27.2842 9.0281 23.688C9.0281 18.5985 9.0281 13.509 9.0281 8.41945C9.0281 8.32802 9.0281 8.20612 9.0281 8.11469C9.0281 7.99278 9.08868 7.90136 9.24015 7.90136C9.33103 7.90136 9.42191 7.90136 9.5128 7.90136C10.6943 7.90136 12.3604 7.90136 13.5116 7.90136V7.35278C9.4825 7.35278 4.63551 7.35278 0.606445 7.35278V7.90136C2.09084 7.90136 3.51464 7.90136 5.02933 7.90136C5.02933 12.4423 5.02933 16.9223 5.02933 21.4328C5.02933 25.9128 5.02933 30.3928 5.02933 34.9337C3.54493 34.9337 2.09084 34.9337 0.636739 34.9337C0.636739 35.1166 0.636739 35.269 0.636739 35.4518C0.788207 35.4518 0.909382 35.4518 1.03056 35.4518C8.93721 35.4518 17.2983 35.4518 25.2049 35.4518V27.0404C25.1746 27.0099 25.1444 26.9185 24.9929 26.888Z" fill="white"/>
<path d="M31.0817 0.0688477H30.1729V42.7965H31.0817V0.0688477Z" fill="white"/>
<path d="M53.3165 18.4462C53.3165 18.4158 53.2862 18.2024 53.2862 18.2024C53.1953 17.8672 53.1347 17.532 53.0438 17.1967C52.6197 15.6424 51.923 14.2405 50.9838 12.93C50.4386 12.1681 49.8024 11.4977 49.0753 10.8881C48.4089 10.3396 47.6818 9.85195 46.9548 9.42528C46.1369 8.96814 45.2583 8.57195 44.3495 8.26719C43.5619 7.9929 42.7743 7.74909 41.9866 7.62719C41.3504 7.53576 40.7143 7.44433 40.1084 7.38338C39.6843 7.3529 39.2602 7.32243 38.8361 7.32243C38.1393 7.29195 37.4123 7.26147 36.7155 7.26147C36.2914 7.26147 35.837 7.29195 35.4129 7.32243C35.0191 7.3529 34.6555 7.3529 34.2617 7.38338C34.3223 7.871 34.3223 7.90148 34.7767 7.90148C35.2917 7.90148 35.837 7.84052 36.352 7.84052C37.5637 7.84052 38.8058 7.84052 40.0175 8.05386C40.5931 8.17576 41.1384 8.26719 41.6837 8.41957C42.3804 8.6329 43.0469 8.90719 43.6831 9.24243C44.4404 9.66909 45.1372 10.1567 45.7127 10.7662C46.6216 11.6805 47.2577 12.7472 47.7424 13.9358C48.2574 15.2158 48.5604 16.5872 48.7421 17.9586C48.7421 18.0805 48.7724 18.4462 48.7724 18.4462C49.045 21.5548 48.833 23.9624 48.833 23.9624C48.833 23.9624 48.8027 24.1758 48.8027 24.2367C48.7118 24.9681 48.6209 25.6996 48.4695 26.431C48.2877 27.3453 48.0151 28.2291 47.6212 29.0824C47.3486 29.6615 47.0457 30.21 46.773 30.7586C46.4095 31.4596 45.9248 32.0691 45.3795 32.6177C44.3192 33.6234 43.0772 34.2939 41.6837 34.69C40.7446 34.9339 39.7752 35.0253 38.8361 35.0862C37.9273 35.1472 36.9882 35.1167 36.049 35.1167C35.5341 35.1167 35.0191 35.1167 34.4738 35.1167C34.3223 35.4824 34.3526 35.5434 34.7464 35.5739C35.0191 35.6043 35.2614 35.6348 35.5341 35.6348C37.2608 35.6653 38.9572 35.6958 40.684 35.5739C41.5019 35.5129 42.2895 35.391 43.0772 35.2081C44.1072 34.9643 45.1069 34.5681 46.046 34.0805C46.8033 33.6843 47.5304 33.2272 48.2574 32.7091C49.3177 31.9777 50.1962 31.0634 50.9536 30.0577C51.5897 29.1739 52.135 28.2596 52.5591 27.2539C52.9529 26.2786 53.2256 25.3034 53.4073 24.2977C53.4376 24.1148 53.4376 23.9929 53.4376 23.9929C53.8012 21.2196 53.3165 18.4462 53.3165 18.4462Z" fill="white"/>
</svg>
