<svg width="96" height="64" viewBox="0 0 96 64" fill="none" xmlns="http://www.w3.org/2000/svg">
<path d="M38.3049 50.4716V57.3361H39.55V50.4716H38.3049ZM31.3094 54.1905H31.932C32.8002 54.1905 33.4883 54.5182 33.4883 55.3046C33.4883 56.1565 32.7839 56.4514 31.9647 56.4514C31.6862 56.4514 31.4732 56.4514 31.3094 56.4186V54.1905ZM31.3094 51.4054C31.4405 51.3727 31.6534 51.3563 32.0303 51.3563C32.8166 51.3563 33.3081 51.6512 33.3081 52.2901C33.3081 52.8635 32.8166 53.2731 31.9483 53.2731H31.3094V51.4054ZM30.0643 57.3197C30.3756 57.3688 30.9162 57.418 31.6043 57.418C32.8494 57.418 33.6685 57.205 34.1436 56.779C34.5368 56.4514 34.799 55.9763 34.799 55.3701C34.799 54.4199 34.1436 53.8465 33.4064 53.6663V53.6499C34.1436 53.3714 34.5532 52.798 34.5532 52.1591C34.5532 51.5857 34.2747 51.1269 33.8488 50.8812C33.3737 50.5535 32.8166 50.4388 31.8828 50.4388C31.1783 50.4388 30.4575 50.5044 30.0643 50.5863V57.3197ZM20.9063 50.4716V54.4035C20.9063 56.5661 21.9384 57.4507 23.5275 57.4507C25.1822 57.4507 26.2635 56.5169 26.2635 54.4035V50.488H25.0184V54.4854C25.0184 55.8288 24.4777 56.4514 23.5767 56.4514C22.7248 56.4514 22.1677 55.8288 22.1677 54.4854V50.488H20.9063V50.4716ZM14.2548 51.3563C15.4999 51.3563 16.1552 52.585 16.1552 53.8793C16.1552 55.321 15.4671 56.4514 14.2548 56.4514C13.0588 56.4514 12.3544 55.3373 12.3544 53.9284C12.338 52.5195 13.0097 51.3563 14.2548 51.3563ZM14.2876 50.3569C12.3544 50.3569 11.0274 51.8478 11.0274 53.9448C11.0274 55.9599 12.2561 57.4344 14.1893 57.4344C16.0897 57.4344 17.4822 56.1237 17.4822 53.8137C17.4658 51.8805 16.2863 50.3569 14.2876 50.3569ZM5.96504 57.3361V54.4363L8.24227 50.4716H6.83334L6.01419 52.241C5.78483 52.7325 5.58824 53.1748 5.40802 53.6008H5.39164C5.21143 53.1256 5.03122 52.7488 4.80186 52.241L3.98271 50.4716H2.54102L4.70356 54.469V57.3361H5.96504Z" fill="white"/>
<path d="M49.1347 55.4357C48.9381 55.7142 48.7087 55.9108 48.4139 56.0583C48.119 56.2057 47.8077 56.2712 47.4473 56.2712C47.0868 56.2712 46.7592 56.2057 46.4643 56.0746C46.1694 55.9436 45.9237 55.7634 45.7271 55.534C45.5305 55.3046 45.3666 55.0425 45.252 54.7312C45.1373 54.42 45.0881 54.0923 45.0881 53.7483C45.0881 53.4042 45.1373 53.0766 45.252 52.7817C45.3666 52.4704 45.5305 52.2083 45.7271 51.9789C45.9237 51.7495 46.1858 51.5693 46.4807 51.4383C46.7756 51.3072 47.1032 51.2417 47.4636 51.2417C47.7913 51.2417 48.0862 51.3072 48.3647 51.4547C48.6432 51.5857 48.8562 51.7659 49.02 51.9789L49.7081 51.4547C49.5934 51.2908 49.446 51.1598 49.2822 51.0287C49.1183 50.914 48.9381 50.7993 48.7415 50.7174C48.5449 50.6355 48.3319 50.57 48.119 50.5372C47.906 50.4881 47.693 50.4717 47.48 50.4717C47.0049 50.4717 46.5626 50.5536 46.153 50.7174C45.7434 50.8813 45.3994 51.0942 45.1045 51.3891C44.8096 51.6676 44.5803 52.0117 44.4 52.4212C44.2362 52.8308 44.1543 53.2732 44.1543 53.7646C44.1543 54.2397 44.2362 54.6985 44.4 55.0917C44.5639 55.5012 44.7932 55.8453 45.0881 56.1402C45.383 56.4351 45.7271 56.6644 46.1366 56.8282C46.5462 56.9921 46.9722 57.074 47.4636 57.074C48.0207 57.074 48.4958 56.9757 48.889 56.7627C49.2821 56.5497 49.6098 56.2876 49.8556 55.9436L49.1347 55.4357Z" fill="white"/>
<path d="M55.6381 51.6349L56.8013 54.5674H54.4586L55.6381 51.6349ZM54.1473 55.3374H57.1126L57.7515 56.8774H58.7345L56.0477 50.6191H55.245L52.5254 56.8774H53.492L54.1473 55.3374Z" fill="white"/>
<path d="M83.0131 51.6349L84.1763 54.5674H81.8336L83.0131 51.6349ZM81.5223 55.3374H84.4876L85.1265 56.8774H86.1095L83.4227 50.6191H82.6199L79.9004 56.8774H80.867L81.5223 55.3374Z" fill="white"/>
<path d="M89.5831 50.6191H88.7148V56.8774H92.3846V56.1074H89.5831V50.6191Z" fill="white"/>
<path d="M62.487 51.3727H63.4372C63.6502 51.3727 63.8304 51.3891 64.0106 51.4219C64.1908 51.4546 64.3383 51.5038 64.4693 51.5857C64.6004 51.6676 64.6987 51.7659 64.7642 51.897C64.8298 52.028 64.8789 52.1755 64.8789 52.3721C64.8789 52.5687 64.8461 52.7161 64.7806 52.8472C64.7151 52.9783 64.6168 53.0765 64.4857 53.1585C64.3547 53.2404 64.2072 53.2895 64.027 53.3387C63.8468 53.3714 63.6502 53.4042 63.4372 53.4042H62.5034V51.3727H62.487ZM61.6023 56.8774H62.4706V54.1251H63.4536C63.7813 54.1251 64.0761 54.0923 64.3547 54.0268C64.6332 53.9612 64.8789 53.8465 65.0755 53.7155C65.2721 53.568 65.4359 53.3878 65.5506 53.1748C65.6653 52.9455 65.7308 52.6834 65.7308 52.3721C65.7308 52.0608 65.6817 51.7987 65.567 51.5857C65.4687 51.3727 65.3049 51.1925 65.1083 51.0451C64.9117 50.8976 64.6823 50.7993 64.4038 50.7338C64.1253 50.6683 63.814 50.6355 63.4864 50.6355H61.5859V56.8774H61.6023Z" fill="white"/>
<path d="M70.0714 50.6191H69.2031V56.8774H70.0714V50.6191Z" fill="white"/>
<path d="M76.1002 51.3891H78.0989V50.6191H73.2168V51.3891H75.2155V56.8774H76.1002V51.3891Z" fill="white"/>
<path d="M32.3242 6.56546L38.1402 6.54907V29.5998C38.1402 29.5998 37.9763 34.1215 44.595 35.0389C44.595 35.0389 51.6397 35.2847 51.8854 29.5998C52.1312 23.8986 51.9673 17.7877 51.9673 17.7877L57.5867 20.2452V30.0094C57.5867 30.0094 57.8324 39.0528 47.0361 40.3962C47.0361 40.3962 33.9625 42.0672 32.5372 30.0913L32.3242 6.56546Z" fill="white"/>
<path d="M45.3804 32.8763H44.7251C42.2185 32.8763 40.1543 30.8121 40.1543 28.3055V14.6421C40.1543 12.1355 42.2185 10.0713 44.7251 10.0713H45.3804C47.887 10.0713 49.9513 12.1355 49.9513 14.6421V28.2891C49.9513 30.8121 47.9034 32.8763 45.3804 32.8763Z" fill="white"/>
</svg>
