<svg width="720" height="511" viewBox="0 0 720 511" fill="none" xmlns="http://www.w3.org/2000/svg">
<g opacity="0.05">
<g clip-path="url(#clip0_8386_217926)">
<rect x="-18" width="738" height="511" rx="8" fill="white" fill-opacity="0.5"/>
<path d="M13.5137 -476.479L-510.284 430.766" stroke="white" stroke-width="16"/>
<path d="M42.958 -459.479L-480.84 447.766" stroke="white" stroke-width="16"/>
<path d="M72.4033 -442.479L-451.395 464.766" stroke="white" stroke-width="16"/>
<path d="M101.848 -425.479L-421.95 481.766" stroke="white" stroke-width="16"/>
<path d="M131.293 -408.479L-392.505 498.766" stroke="white" stroke-width="16"/>
<path d="M160.737 -391.479L-363.061 515.766" stroke="white" stroke-width="16"/>
<path d="M190.183 -374.479L-333.616 532.766" stroke="white" stroke-width="16"/>
<path d="M219.627 -357.479L-304.171 549.766" stroke="white" stroke-width="16"/>
<path d="M249.072 -340.479L-274.726 566.766" stroke="white" stroke-width="16"/>
<path d="M278.517 -323.479L-245.282 583.766" stroke="white" stroke-width="16"/>
<path d="M307.962 -306.479L-215.836 600.766" stroke="white" stroke-width="16"/>
<path d="M337.407 -289.479L-186.391 617.766" stroke="white" stroke-width="16"/>
<path d="M366.852 -272.479L-156.947 634.766" stroke="white" stroke-width="16"/>
<path d="M396.297 -255.479L-127.501 651.766" stroke="white" stroke-width="16"/>
<path d="M425.741 -238.479L-98.0569 668.766" stroke="white" stroke-width="16"/>
<path d="M455.187 -221.479L-68.6116 685.766" stroke="white" stroke-width="16"/>
<path d="M484.631 -204.479L-39.1673 702.766" stroke="white" stroke-width="16"/>
<path d="M514.076 -187.479L-9.72198 719.766" stroke="white" stroke-width="16"/>
<path d="M543.521 -170.479L19.7224 736.766" stroke="white" stroke-width="16"/>
<path d="M572.966 -153.479L49.1677 753.766" stroke="white" stroke-width="16"/>
<path d="M602.41 -136.479L78.612 770.766" stroke="white" stroke-width="16"/>
<path d="M631.855 -119.479L108.057 787.766" stroke="white" stroke-width="16"/>
<path d="M661.3 -102.479L137.502 804.766" stroke="white" stroke-width="16"/>
<path d="M690.745 -85.479L166.947 821.766" stroke="white" stroke-width="16"/>
<path d="M720.19 -68.479L196.392 838.766" stroke="white" stroke-width="16"/>
<path d="M749.635 -51.479L225.837 855.766" stroke="white" stroke-width="16"/>
<path d="M779.08 -34.479L255.282 872.766" stroke="white" stroke-width="16"/>
<path d="M808.524 -17.479L284.726 889.766" stroke="white" stroke-width="16"/>
<path d="M837.97 -0.479004L314.172 906.766" stroke="white" stroke-width="16"/>
<path d="M867.414 16.521L343.616 923.766" stroke="white" stroke-width="16"/>
<path d="M896.859 33.521L373.061 940.766" stroke="white" stroke-width="16"/>
<path d="M926.304 50.521L402.506 957.766" stroke="white" stroke-width="16"/>
<path d="M955.749 67.521L431.951 974.766" stroke="white" stroke-width="16"/>
<path d="M985.193 84.521L461.395 991.766" stroke="white" stroke-width="16"/>
<path d="M1014.64 101.521L490.841 1008.77" stroke="white" stroke-width="16"/>
<path d="M1044.08 118.521L520.286 1025.77" stroke="white" stroke-width="16"/>
<path d="M1073.53 135.521L549.73 1042.77" stroke="white" stroke-width="16"/>
<path d="M1102.97 152.521L579.175 1059.77" stroke="white" stroke-width="16"/>
<path d="M1132.42 169.521L608.62 1076.77" stroke="white" stroke-width="16"/>
<path d="M1161.86 186.521L638.065 1093.77" stroke="white" stroke-width="16"/>
<path d="M1191.31 203.521L667.509 1110.77" stroke="white" stroke-width="16"/>
<path d="M1220.75 220.521L696.955 1127.77" stroke="white" stroke-width="16"/>
<path d="M1250.2 237.521L726.399 1144.77" stroke="white" stroke-width="16"/>
</g>
</g>
<defs>
<clipPath id="clip0_8386_217926">
<rect x="-18" width="738" height="511" rx="8" fill="white"/>
</clipPath>
</defs>
</svg>
